<svg width="100" height="54" viewBox="0 0 100 54" fill="none" xmlns="http://www.w3.org/2000/svg">
<g clip-path="url(#clip0_167_925)">
<path d="M0 30.7518H7.53602L11.7237 9.92243H4.18668L0 30.7518ZM4.6019 7.43809H12.1695L13.4132 1.20603H5.84853L4.6019 7.43809ZM10.4672 36.6131H18.0042L22.6091 14.109H28.2613L29.0947 9.92243H23.5509L23.761 8.98057C24.0746 7.20533 24.7029 5.21214 27.5285 5.21214C29.2052 5.21214 30.7743 5.31668 32.3435 6.04946L33.1818 1.65378C31.433 1.03677 29.593 0.718044 27.7386 0.710938C21.6672 0.710938 17.4815 4.27028 15.9104 9.92243H13.2938L12.4565 14.109H15.073L10.4672 36.6131Z" fill="#EA1D2C"/>
<path d="M34.3327 31.171C43.2298 31.171 49.4058 23.1104 49.4058 16.5164C49.4058 11.5971 44.9045 9.50327 40.5087 9.50327C30.7714 9.50327 25.4357 18.196 25.4357 24.1578C25.4357 29.0772 30.0415 31.171 34.3327 31.171ZM58.2003 31.171C67.0973 31.171 73.2733 23.1104 73.2733 16.5164C73.2733 11.5971 68.6675 9.50327 64.2707 9.50327C54.5363 9.50327 49.1987 18.1911 49.1987 24.1578C49.1987 29.0772 53.909 31.171 58.2003 31.171ZM85.5197 30.7518H92.9512L99.0206 1.13403H91.4846L89.7044 9.92637L86.5642 9.61275C79.2372 9.61275 72.5385 19.0323 72.5385 25.7319C72.5385 28.4529 74.3138 31.1749 77.3535 31.1749C81.6447 31.1749 84.6804 29.0811 85.9339 26.9874H86.3521L85.5197 30.7518ZM62.2804 46.3483C56.4308 51.1949 48.9174 53.5615 41.346 52.9423C31.4016 52.314 24.2837 44.6726 23.0282 36.6131H23.4464C25.7493 41.6429 31.297 46.3483 38.1012 47.08C45.0051 47.9174 53.2788 44.7782 57.7791 40.486L52.7551 36.6131H67.9327L64.5794 52.7332L62.381 46.4528L62.2804 46.3483Z" fill="#EA1D2C"/>
</g>
<defs>
<clipPath id="clip0_167_925">
<rect width="99.0206" height="52.328" fill="white" transform="translate(0 0.710938)"/>
</clipPath>
</defs>
</svg>
