<svg width="162" height="53" viewBox="0 0 162 53" fill="none" xmlns="http://www.w3.org/2000/svg">
<path d="M41.9493 40.2044H48.1534V21.8169H41.9493V40.2044ZM50.3006 9.3046H46.1195V13.553H50.3006V9.3046ZM26.8502 11.3713H20.8537V16.7037H26.4227C29.9563 16.7037 31.9902 18.4442 31.9902 21.7086C31.9902 24.9731 29.9563 26.8218 26.4227 26.8218H20.8537V16.8175H14.6496V40.2044H20.8537V32.1529H26.7436C33.9176 32.1529 38.0946 28.2361 38.0946 21.4907C38.0946 15.1798 34.0255 11.3713 26.8502 11.3713ZM54.4776 5.06714H41.9493V17.7905H54.4776V5.06714ZM52.4424 15.6197H44.091V7.12831H52.4424V15.6197ZM88.8501 11.3713H83.1746V16.7037H88.5277C92.0614 16.7037 94.0966 18.4442 94.0966 21.7086C94.0966 24.9731 92.0614 26.8218 88.5277 26.8218H83.1746V16.8175H76.9704V40.2044H83.1746V32.1529H88.8501C96.024 32.1529 100.2 28.2361 100.2 21.4907C100.2 15.1798 96.024 11.3713 88.8501 11.3713ZM140.997 18.118L135.643 31.8226L130.289 18.118H123.865L132.43 40.2044L129.111 48.582H135.643L147.421 18.118H140.997ZM113.157 18.0084C109.409 18.0084 106.517 18.8786 103.304 20.5109L105.233 24.8634C107.481 23.5574 109.73 22.905 111.764 22.905C114.762 22.905 116.262 24.2111 116.262 26.6053V27.0411H110.261C104.907 27.0411 102.016 29.5436 102.016 33.6782C102.016 37.7033 104.8 40.5305 109.511 40.5305C112.51 40.5305 114.651 39.4438 116.364 37.5936V39.9865H122.469V25.6254C122.265 20.9467 118.939 18.0084 113.157 18.0084ZM116.799 32.8094C116.157 34.6581 114.336 36.1821 111.765 36.1821C109.625 36.1821 108.339 35.0939 108.339 33.3534C108.339 31.6129 109.517 30.851 111.873 30.851H116.799V32.8094ZM64.0064 35.4173C61.0082 35.4173 58.8678 33.0231 58.8678 29.4325C58.8678 25.9516 61.0082 23.5574 64.0064 23.5574C66.1482 23.5574 67.7545 24.4276 68.9333 25.9516L73.1144 22.905C71.1871 19.9668 67.8678 18.2263 63.6908 18.2263C57.1589 18.118 52.6622 22.6871 52.6622 29.4325C52.6622 36.1779 57.1589 40.6402 63.6908 40.6402C68.1888 40.6402 71.5135 38.79 73.3289 35.7435L69.0453 32.8066C67.969 34.5471 66.2561 35.4173 64.0064 35.4173Z" fill="#21C25E"/>
</svg>
