<svg width="176" height="88" viewBox="0 0 176 88" fill="none" xmlns="http://www.w3.org/2000/svg">
<path fill-rule="evenodd" clip-rule="evenodd" d="M105.255 59.5281C96.8117 65.792 84.5336 69.1368 73.9762 69.1368C59.1737 69.1368 45.8459 63.6378 35.7646 54.4884C34.9726 53.7688 35.6816 52.7889 36.6322 53.3476C47.5128 59.7095 60.9658 63.5339 74.8613 63.5339C84.2337 63.5339 94.5436 61.5859 104.024 57.5435C105.456 56.9322 106.653 58.4854 105.252 59.5296M108.773 55.4872C107.695 54.0979 101.639 54.832 98.8993 55.1567C98.0695 55.2591 97.9429 54.5322 98.6897 54.0101C103.523 50.5908 111.457 51.578 112.384 52.7231C113.312 53.8683 112.144 61.8637 107.601 65.6779C106.902 66.2629 106.238 65.9514 106.548 65.1748C107.567 62.6155 109.856 56.881 108.773 55.4872Z" fill="#FF9900"/>
<path fill-rule="evenodd" clip-rule="evenodd" d="M99.0901 29.8746V26.5518C99.0871 26.4405 99.1066 26.3298 99.1476 26.2264C99.1887 26.123 99.2502 26.0291 99.3285 25.9504C99.4069 25.8717 99.5004 25.8099 99.6033 25.7687C99.7062 25.7275 99.8164 25.7078 99.9271 25.7109H114.735C115.21 25.7109 115.591 26.0545 115.591 26.5518V29.3964C115.586 29.8731 115.184 30.4976 114.476 31.4848L106.804 42.4916C109.658 42.4214 112.665 42.8484 115.251 44.3124C115.833 44.6429 115.979 45.127 116.037 45.6052V49.1518C116.037 49.6344 115.504 50.2019 114.945 49.9094C110.388 47.5109 104.337 47.2476 99.2997 49.9342C98.7858 50.215 98.2472 49.6534 98.2472 49.1708V45.8027C98.2472 45.2616 98.253 44.3402 98.7916 43.5168L107.682 30.7082H99.9592C99.4846 30.7082 99.1031 30.3718 99.1031 29.8746M45.0671 50.6099H40.5629C40.132 50.5777 39.7913 50.2531 39.7578 49.8392V26.6088C39.7578 26.1438 40.1451 25.7752 40.6255 25.7752H44.8269C45.2636 25.7942 45.613 26.132 45.645 26.5503V29.5865H45.728C46.8242 26.6512 48.8842 25.2823 51.6589 25.2823C54.4788 25.2823 56.2403 26.6512 57.5083 29.5865C58.6001 26.6512 61.075 25.2823 63.7318 25.2823C65.62 25.2823 67.6857 26.0648 68.9464 27.8227C70.3731 29.7766 70.082 32.6168 70.082 35.106L70.0718 49.769C70.0718 50.2341 69.6845 50.6099 69.2041 50.6099H64.6912C64.2544 50.5777 63.8803 50.215 63.8803 49.769V37.4401C63.8803 36.4602 63.9676 34.0149 63.7536 33.0862C63.4188 31.5272 62.4099 31.087 61.1041 31.087C60.0122 31.087 58.8738 31.8183 58.4109 32.9912C57.9479 34.1641 57.9931 36.1239 57.9931 37.4416V49.7558C57.9931 50.2209 57.6058 50.5968 57.1254 50.5968H52.6125C52.1568 50.5646 51.8016 50.2019 51.8016 49.7558L51.7958 37.4416C51.7958 34.85 52.2209 31.0358 49.0196 31.0358C45.7819 31.0358 45.9085 34.7535 45.9085 37.4416V49.7558C45.9085 50.2209 45.5213 50.5968 45.0409 50.5968M128.341 25.3013C135.026 25.3013 138.645 31.0695 138.645 38.4024C138.645 45.4882 134.646 51.1086 128.341 51.1086C121.79 51.1086 118.202 45.3405 118.202 38.1538C118.202 30.9217 121.821 25.2838 128.341 25.2838M128.379 30.0267C125.06 30.0267 124.849 34.5721 124.849 37.405C124.849 40.2379 124.805 46.3043 128.34 46.3043C131.831 46.3043 131.997 41.4152 131.997 38.4361C131.997 36.4763 131.914 34.1319 131.327 32.2731C130.82 30.6556 129.813 30.0252 128.381 30.0252M147.316 50.6099H142.829C142.393 50.5777 142.018 50.215 142.018 49.769L142.013 26.5328C142.05 26.1057 142.425 25.7752 142.88 25.7752H147.058C147.451 25.7942 147.775 26.0619 147.863 26.4246V29.9784H147.946C149.207 26.8019 150.974 25.2867 154.087 25.2867C156.125 25.2867 158.079 26.018 159.347 28.0245C160.511 29.8819 160.511 33.0087 160.511 35.2566V49.8816C160.46 50.2911 160.086 50.6128 159.644 50.6128H155.134C154.722 50.5807 154.38 50.2765 154.336 49.8816V37.2646C154.336 34.7242 154.627 31.0051 151.516 31.0051C150.42 31.0051 149.412 31.7437 148.896 32.8625C148.262 34.2811 148.179 35.6953 148.179 37.2617V49.7719C148.174 50.237 147.78 50.6128 147.299 50.6128M87.2836 39.4978C87.2836 41.2616 87.3273 42.7153 86.4392 44.2978C85.723 45.5701 84.5831 46.354 83.3209 46.354C81.5914 46.354 80.5768 45.0305 80.5768 43.0751C80.5768 39.217 84.0182 38.5165 87.2807 38.5165V39.4964M91.8227 50.5295C91.5243 50.7971 91.0948 50.8161 90.76 50.6377C89.2649 49.3902 88.9927 48.8096 88.1745 47.6206C85.7026 50.1536 83.9484 50.9112 80.7471 50.9112C76.9518 50.9112 74.0039 48.5624 74.0039 43.8576C74.0039 40.1838 75.9808 37.6829 78.808 36.4602C81.2537 35.378 84.669 35.1879 87.2807 34.888V34.303C87.2807 33.2266 87.3637 31.9543 86.7275 31.0241C86.183 30.1905 85.1305 29.8468 84.1988 29.8468C82.4809 29.8468 80.9524 30.7316 80.5797 32.5671C80.504 32.9766 80.2055 33.3758 79.7935 33.3948L75.4262 32.9239C75.0593 32.8405 74.6473 32.5437 74.7565 31.9733C75.7581 26.6498 80.5506 25.0469 84.8306 25.0469C87.023 25.0469 89.888 25.6319 91.6175 27.2991C93.8099 29.3554 93.6003 32.0991 93.6003 35.0855V42.1391C93.6003 44.2597 94.4737 45.1884 95.2992 46.3365C95.5845 46.746 95.6486 47.2345 95.2802 47.5401L91.8358 50.5587L91.83 50.5441M28.2178 39.5125C28.2178 41.2762 28.2614 42.73 27.3734 44.3124C26.6572 45.5848 25.5246 46.3687 24.2551 46.3687C22.5256 46.3687 21.5182 45.0451 21.5182 43.0897C21.5182 39.2317 24.9597 38.5311 28.2149 38.5311V39.511M32.7569 50.5441C32.4585 50.8117 32.029 50.8308 31.6942 50.6523C30.1991 49.4048 29.9472 48.8242 29.1087 47.6352C26.6368 50.1682 24.8869 50.9258 21.6813 50.9258C17.8933 50.9273 14.9409 48.5785 14.9409 43.8751C14.9409 40.2013 16.9237 37.7004 19.7451 36.4778C22.1908 35.3955 25.6061 35.2054 28.2178 34.9056V34.3206C28.2178 33.2442 28.3007 31.9718 27.6733 31.0417C27.1201 30.208 26.0719 29.8644 25.1446 29.8644C23.4268 29.8644 21.8938 30.7492 21.5051 32.5846C21.4294 32.9941 21.131 33.3934 20.7263 33.4124L16.3531 32.9415C15.9862 32.8581 15.5815 32.5612 15.6834 31.9908C16.6908 26.6673 21.4775 25.0644 25.7575 25.0644C27.9499 25.0644 30.8149 25.6494 32.5444 27.3167C34.7368 29.373 34.5272 32.1166 34.5272 35.103V42.1567C34.5272 44.2773 35.4006 45.206 36.2261 46.354C36.5172 46.7635 36.5813 47.252 36.2115 47.5577L32.7758 50.5587L32.7613 50.5441" fill="white"/>
</svg>
