<svg width="184" height="57" viewBox="0 0 184 57" fill="none" xmlns="http://www.w3.org/2000/svg">
<g clip-path="url(#clip0_167_938)">
<path d="M27.9756 0.465576C22.5315 0.465576 17.2096 2.0945 12.683 5.14635C8.15631 8.19821 4.62822 12.5359 2.54484 17.611C0.461451 22.686 -0.0836582 28.2705 0.978443 33.6581C2.04054 39.0458 4.66215 43.9946 8.51175 47.8789C12.3613 51.7632 17.266 54.4084 22.6056 55.4801C27.9451 56.5517 33.4797 56.0017 38.5094 53.8996C43.5392 51.7974 47.8382 48.2375 50.8628 43.6701C53.8874 39.1027 55.5018 33.7328 55.5018 28.2397C55.5018 20.8735 52.6017 13.8091 47.4395 8.60042C42.2774 3.39177 35.276 0.465576 27.9756 0.465576ZM40.5983 40.5207C40.481 40.715 40.3269 40.884 40.1448 41.0182C39.9627 41.1523 39.7562 41.2489 39.537 41.3024C39.3179 41.3559 39.0905 41.3653 38.8677 41.3301C38.645 41.2948 38.4313 41.2156 38.239 41.097C31.775 37.1104 23.6333 36.211 14.059 38.4178C13.8393 38.4684 13.6119 38.4749 13.3897 38.4368C13.1675 38.3987 12.9549 38.3169 12.7641 38.1959C12.5733 38.0749 12.4079 37.9172 12.2775 37.7318C12.1471 37.5463 12.0541 37.3368 12.0039 37.1151C11.9538 36.8934 11.9474 36.6639 11.9851 36.4397C12.0229 36.2155 12.104 36.001 12.2239 35.8085C12.3438 35.6159 12.5001 35.4491 12.6839 35.3175C12.8677 35.1859 13.0753 35.0921 13.2951 35.0415C23.7812 32.6212 32.7693 33.6622 40.0291 38.1363C40.4164 38.3769 40.6932 38.7628 40.7985 39.2092C40.9038 39.6557 40.8292 40.1261 40.5908 40.5169L40.5983 40.5207ZM43.9689 32.9631C43.6711 33.4524 43.1929 33.8023 42.6395 33.9359C42.0861 34.0694 41.5028 33.9758 41.0178 33.6754C33.6194 29.088 22.3412 27.7598 13.589 30.4389C13.3193 30.5217 13.036 30.55 12.7554 30.5223C12.4748 30.4946 12.2024 30.4114 11.9536 30.2774C11.7049 30.1434 11.4847 29.9614 11.3057 29.7416C11.1267 29.5218 10.9924 29.2685 10.9104 28.9964C10.8284 28.7242 10.8003 28.4384 10.8278 28.1552C10.8552 27.8721 10.9377 27.5972 11.0705 27.3462C11.2032 27.0952 11.3837 26.8731 11.6015 26.6925C11.8193 26.5119 12.0703 26.3763 12.3401 26.2936C22.3356 23.2347 34.7635 24.7159 43.2611 29.9855C43.5015 30.1339 43.7106 30.3287 43.8763 30.5588C44.042 30.789 44.161 31.0498 44.2266 31.3264C44.2922 31.6031 44.303 31.89 44.2585 32.1709C44.2139 32.4518 44.1149 32.721 43.967 32.9631H43.9689ZM44.2666 25.0863C35.3927 19.7695 20.7571 19.2802 12.2876 21.8743C11.9634 21.9762 11.6224 22.0123 11.2843 21.9807C10.9462 21.949 10.6176 21.8502 10.3175 21.6899C10.0174 21.5296 9.75169 21.311 9.53566 21.0466C9.31963 20.7823 9.15756 20.4774 9.05877 20.1496C8.95999 19.8218 8.92644 19.4775 8.96007 19.1366C8.99369 18.7956 9.09383 18.4648 9.2547 18.163C9.41558 17.8613 9.63402 17.5947 9.89744 17.3785C10.1609 17.1623 10.4641 17.0008 10.7896 16.9033C20.5061 13.9256 36.6698 14.5 46.8881 20.6178C47.4501 20.9809 47.8504 21.5499 48.0047 22.2049C48.159 22.8599 48.0553 23.5497 47.7154 24.1291C47.3755 24.7084 46.826 25.132 46.1826 25.3106C45.5393 25.4891 44.8523 25.4087 44.2666 25.0863ZM75.3505 26.1046C70.598 24.971 69.7517 24.1586 69.7517 22.4732C69.7517 20.8786 71.2384 19.8073 73.4499 19.8073C75.5921 19.8073 77.7174 20.6216 79.9457 22.2975C79.9789 22.3226 80.0168 22.3408 80.0571 22.3509C80.0974 22.3609 80.1393 22.3628 80.1803 22.3563C80.2214 22.3498 80.2607 22.335 80.2959 22.3129C80.3312 22.2908 80.3617 22.2618 80.3857 22.2276L82.7058 18.9268C82.752 18.8617 82.7718 18.7811 82.761 18.7017C82.7502 18.6223 82.7097 18.55 82.6477 18.4998C79.9962 16.3535 77.0096 15.3086 73.5192 15.3086C68.3885 15.3086 64.8045 18.4167 64.8045 22.8662C64.8045 27.6332 67.896 29.3223 73.2402 30.6241C77.7867 31.6821 78.5544 32.5664 78.5544 34.1497C78.5544 35.9049 77.0021 36.9951 74.5041 36.9951C71.7309 36.9951 69.4689 36.0504 66.9373 33.8398C66.8731 33.7868 66.7916 33.7599 66.7088 33.7642C66.6677 33.7676 66.6276 33.7792 66.591 33.7983C66.5543 33.8175 66.5218 33.8438 66.4953 33.8757L63.8925 37.0008C63.8401 37.0628 63.814 37.1433 63.82 37.2247C63.8259 37.306 63.8634 37.3817 63.9244 37.4353C66.7923 40.0584 70.5285 41.5046 74.3993 41.49C79.9288 41.49 83.5016 38.4405 83.5016 33.7227C83.5128 29.7398 81.1497 27.5349 75.3599 26.1141H75.3505V26.1046ZM96.0119 21.3812C93.6151 21.3812 91.649 22.3259 90.0292 24.2852V22.084C90.0292 22.0007 89.9965 21.9207 89.9383 21.8616C89.8801 21.8024 89.801 21.769 89.7184 21.7685H85.449C85.4081 21.7685 85.3675 21.7767 85.3297 21.7925C85.2918 21.8084 85.2575 21.8317 85.2286 21.861C85.1997 21.8903 85.1768 21.9251 85.1613 21.9634C85.1458 22.0017 85.1379 22.0427 85.1382 22.084V46.4931C85.1379 46.5344 85.1458 46.5754 85.1613 46.6137C85.1768 46.652 85.1997 46.6868 85.2286 46.7161C85.2575 46.7454 85.2918 46.7687 85.3297 46.7846C85.3675 46.8004 85.4081 46.8086 85.449 46.8086H89.7053C89.7879 46.8081 89.867 46.7747 89.9252 46.7155C89.9834 46.6564 90.0161 46.5764 90.0161 46.4931V38.7881C91.6377 40.6246 93.6039 41.5221 95.9988 41.5221C100.454 41.5221 104.961 38.0626 104.961 31.4497C104.961 24.8369 100.467 21.3755 96.0045 21.3755L96.0119 21.3812ZM100.014 31.4516C100.014 34.8185 97.9538 37.1689 95.0139 37.1689C92.104 37.1689 89.9094 34.7127 89.9094 31.4516C89.9094 28.1905 92.104 25.7343 95.0139 25.7343C97.9238 25.7343 100.014 28.1376 100.014 31.4516ZM116.516 21.3774C110.781 21.3774 106.288 25.8345 106.288 31.5234C106.288 37.1519 110.751 41.5618 116.447 41.5618C122.201 41.5618 126.708 37.1198 126.708 31.4516C126.708 25.7834 122.231 21.3793 116.516 21.3793V21.3774ZM116.516 37.2029C113.466 37.2029 111.166 34.7297 111.166 31.4497C111.166 28.1698 113.387 25.7683 116.447 25.7683C119.507 25.7683 121.832 28.2415 121.832 31.5215C121.832 34.8015 119.596 37.2029 116.516 37.2029ZM138.956 21.7704H134.275V16.9373C134.275 16.8958 134.267 16.8547 134.251 16.8164C134.235 16.7781 134.212 16.7434 134.183 16.7142C134.153 16.685 134.119 16.662 134.081 16.6464C134.042 16.6309 134.002 16.6232 133.961 16.6237H129.708C129.625 16.6237 129.546 16.6566 129.488 16.7154C129.429 16.7742 129.396 16.854 129.395 16.9373V21.7685H127.351C127.31 21.7685 127.269 21.7767 127.231 21.7925C127.193 21.8084 127.159 21.8317 127.13 21.861C127.101 21.8903 127.078 21.9251 127.063 21.9634C127.047 22.0017 127.039 22.0427 127.04 22.084V25.7834C127.04 25.8666 127.072 25.9464 127.131 26.0052C127.189 26.064 127.268 26.0971 127.351 26.0971H129.395V35.6461C129.395 39.5061 131.3 41.4616 135.054 41.4616C136.447 41.4957 137.824 41.1497 139.039 40.4603C139.087 40.4332 139.127 40.3937 139.154 40.3459C139.182 40.298 139.196 40.2436 139.196 40.1882V36.6739C139.196 36.6205 139.182 36.5679 139.156 36.5213C139.131 36.4747 139.093 36.4355 139.048 36.4075C139.003 36.3787 138.952 36.3621 138.898 36.3595C138.845 36.3568 138.792 36.3682 138.745 36.3924C137.973 36.7966 137.116 37.0054 136.247 37.0008C134.882 37.0008 134.273 36.3754 134.273 34.9735V26.0933H138.955C139.037 26.0933 139.116 26.0603 139.174 26.0014C139.233 25.9426 139.265 25.8628 139.265 25.7797V22.0859C139.267 22.0446 139.26 22.0035 139.245 21.965C139.23 21.9265 139.207 21.8915 139.179 21.862C139.15 21.8325 139.116 21.8092 139.078 21.7934C139.04 21.7777 138.999 21.7698 138.958 21.7704H138.956ZM155.272 21.7893V21.196C155.272 19.4502 155.936 18.6718 157.423 18.6718C158.242 18.6813 159.054 18.8328 159.822 19.1196C159.869 19.1347 159.919 19.1385 159.967 19.1306C160.016 19.1227 160.062 19.1033 160.102 19.074C160.142 19.0447 160.174 19.0064 160.196 18.9621C160.219 18.9178 160.23 18.8688 160.23 18.8191V15.2028C160.231 15.1356 160.21 15.0701 160.17 15.0159C160.131 14.9618 160.075 14.922 160.011 14.9024C158.865 14.5491 157.672 14.3758 156.474 14.3885C152.542 14.3885 150.465 16.6218 150.465 20.8446V21.7534H148.42C148.337 21.7539 148.258 21.7873 148.2 21.8463C148.141 21.9054 148.108 21.9854 148.107 22.0689V25.7834C148.108 25.8666 148.142 25.9461 148.2 26.0048C148.259 26.0635 148.338 26.0966 148.42 26.0971H150.465V40.8344C150.465 40.9175 150.498 40.9973 150.556 41.0561C150.614 41.1149 150.693 41.148 150.776 41.148H155.03C155.113 41.148 155.192 41.115 155.251 41.0562C155.309 40.9975 155.342 40.9177 155.343 40.8344V26.0895H159.316L165.402 40.8136C164.711 42.361 164.031 42.6689 163.105 42.6689C162.279 42.6482 161.472 42.4175 160.758 41.9982C160.721 41.9769 160.679 41.9637 160.637 41.9595C160.594 41.9553 160.551 41.9602 160.51 41.974C160.469 41.9877 160.432 42.0099 160.4 42.0391C160.368 42.0683 160.343 42.104 160.326 42.1437L158.884 45.3368C158.851 45.409 158.846 45.4914 158.871 45.567C158.896 45.6425 158.949 45.7055 159.019 45.743C160.404 46.534 161.972 46.9389 163.563 46.9163C166.705 46.9163 168.432 45.4388 169.973 41.4673L177.356 22.2182C177.375 22.1705 177.382 22.119 177.376 22.068C177.37 22.0171 177.353 21.9684 177.324 21.926C177.295 21.8837 177.257 21.8491 177.212 21.8253C177.167 21.8014 177.117 21.7891 177.066 21.7893H172.636C172.571 21.791 172.509 21.8125 172.458 21.8511C172.406 21.8896 172.368 21.9432 172.347 22.0047L167.803 35.0793L162.833 21.9914C162.811 21.9319 162.771 21.8806 162.719 21.8445C162.667 21.8083 162.606 21.7891 162.543 21.7893H155.272ZM145.812 21.7704H141.557C141.474 21.7704 141.395 21.8036 141.336 21.8628C141.278 21.922 141.245 22.0022 141.245 22.0859V40.8192C141.245 40.8606 141.253 40.9015 141.268 40.9397C141.284 40.9779 141.307 41.0125 141.336 41.0417C141.365 41.0708 141.4 41.0939 141.438 41.1095C141.476 41.1252 141.516 41.1331 141.557 41.1329H145.812C145.853 41.1331 145.893 41.1252 145.931 41.1095C145.969 41.0939 146.004 41.0708 146.033 41.0417C146.062 41.0125 146.085 40.9779 146.101 40.9397C146.116 40.9015 146.124 40.8606 146.124 40.8192V22.084C146.124 22.0008 146.092 21.9211 146.033 21.8622C145.975 21.8034 145.896 21.7704 145.814 21.7704H145.812ZM143.709 13.2398C143.105 13.2398 142.515 13.4204 142.013 13.7589C141.511 14.0974 141.12 14.5785 140.889 15.1414C140.658 15.7042 140.598 16.3235 140.715 16.921C140.833 17.5184 141.124 18.0672 141.551 18.4978C141.978 18.9285 142.522 19.2216 143.115 19.3402C143.707 19.4589 144.321 19.3976 144.878 19.1642C145.436 18.9308 145.912 18.5358 146.248 18.0291C146.583 17.5224 146.761 16.9268 146.761 16.3176C146.761 15.5011 146.439 14.7183 145.866 14.1411C145.294 13.564 144.518 13.2398 143.709 13.2398ZM180.989 27.7881C180.398 27.7851 179.821 27.6057 179.33 27.2725C178.84 26.9392 178.458 26.467 178.233 25.9154C178.008 25.3637 177.95 24.7573 178.066 24.1723C178.182 23.5874 178.467 23.0501 178.885 22.6282C179.303 22.2062 179.835 21.9185 180.415 21.8011C180.994 21.6838 181.595 21.7421 182.142 21.9688C182.689 22.1954 183.157 22.5802 183.488 23.0748C183.818 23.5694 183.997 24.1515 184 24.7481C184.004 25.1482 183.929 25.5452 183.779 25.9158C183.629 26.2863 183.408 26.6229 183.127 26.906C182.847 27.1891 182.513 27.4129 182.146 27.5644C181.779 27.7158 181.386 27.7919 180.989 27.7881ZM181.006 22.0292C180.47 22.0244 179.944 22.1805 179.496 22.4777C179.048 22.7749 178.698 23.1999 178.49 23.6985C178.281 24.1971 178.225 24.7469 178.327 25.278C178.43 25.8091 178.686 26.2976 179.064 26.6812C179.442 27.0648 179.925 27.3264 180.451 27.4326C180.977 27.5388 181.522 27.4849 182.017 27.2777C182.512 27.0705 182.935 26.7193 183.233 26.2689C183.53 25.8185 183.687 25.2891 183.685 24.7481C183.688 24.3917 183.62 24.0383 183.486 23.7085C183.353 23.3786 183.156 23.0786 182.906 22.8259C182.657 22.5732 182.361 22.3727 182.035 22.236C181.709 22.0992 181.359 22.029 181.006 22.0292ZM181.671 25.0522L182.517 26.2482H181.802L181.04 25.1505H180.384V26.2482H179.787V23.0873H181.187C181.918 23.0873 182.399 23.4652 182.399 24.1C182.409 24.321 182.342 24.5386 182.209 24.7147C182.076 24.8908 181.886 25.0142 181.672 25.0636L181.671 25.0522ZM181.163 23.6201H180.384V24.6234H181.163C181.553 24.6234 181.785 24.4344 181.785 24.1227C181.785 23.8109 181.551 23.6201 181.163 23.6201Z" fill="#2EBD59"/>
</g>
<defs>
<clipPath id="clip0_167_938">
<rect width="183.55" height="55.5482" fill="white" transform="translate(0.449524 0.465576)"/>
</clipPath>
</defs>
</svg>
