<svg width="145" height="73" viewBox="0 0 145 73" fill="none" xmlns="http://www.w3.org/2000/svg">
<path d="M39.0975 32.057H23.9787V36.5432H34.7019C34.1706 42.8225 28.9382 45.5178 23.9968 45.5178C22.4314 45.5247 20.8803 45.2196 19.4341 44.6205C17.9879 44.0213 16.6755 43.1401 15.5736 42.0282C14.4717 40.9163 13.6023 39.596 13.0163 38.1444C12.4302 36.6928 12.1392 35.139 12.1602 33.5737C12.1602 26.7824 17.418 21.5536 24.0113 21.5536C29.0976 21.5536 32.0948 24.7959 32.0948 24.7959L35.2344 21.5427C35.2344 21.5427 31.2012 17.0542 23.8471 17.0542C14.4824 17.0542 7.23817 24.9577 7.23817 33.494C7.23817 41.8589 14.0525 50.016 24.0838 50.016C32.9075 50.016 39.3667 43.9709 39.3667 35.0325C39.3667 33.1463 39.0926 32.057 39.0926 32.057H39.0975Z" fill="#4885ED"/>
<path d="M51.4835 28.8074C45.279 28.8074 40.8327 33.6582 40.8327 39.3132C40.8327 45.054 45.1438 49.9942 51.5559 49.9942C57.3595 49.9942 62.1137 45.5588 62.1137 39.4364C62.1137 32.4325 56.5831 28.8062 51.4835 28.8062V28.8074ZM51.5439 32.9686C54.5942 32.9686 57.4851 35.4357 57.4851 39.4098C57.4851 43.2982 54.6063 45.8365 51.5294 45.8365C48.1482 45.8365 45.4915 43.1291 45.4915 39.3784C45.4915 35.7074 48.124 32.9686 51.5535 32.9686H51.5439Z" fill="#DB3236"/>
<path d="M74.6459 28.8074C68.4414 28.8074 63.9951 33.6582 63.9951 39.3132C63.9951 45.054 68.3061 49.9942 74.7183 49.9942C80.5219 49.9942 85.2761 45.5588 85.2761 39.4364C85.2761 32.4325 79.7454 28.8062 74.6459 28.8062V28.8074ZM74.7063 32.9686C77.7566 32.9686 80.6475 35.4357 80.6475 39.4098C80.6475 43.2982 77.7687 45.8365 74.6918 45.8365C71.3106 45.8365 68.6539 43.1291 68.6539 39.3784C68.6539 35.7074 71.2864 32.9686 74.7159 32.9686H74.7063Z" fill="#F4C20D"/>
<path d="M97.3639 28.8193C91.669 28.8193 87.1937 33.8066 87.1937 39.4049C87.1937 45.7808 92.3826 50.0098 97.2648 50.0098C100.284 50.0098 101.89 48.8106 103.061 47.4352V49.5243C103.061 53.1796 100.842 55.3689 97.4919 55.3689C94.2556 55.3689 92.6326 52.9623 92.0578 51.5977L87.9859 53.2883C89.4301 56.3435 92.338 59.5278 97.5257 59.5278C103.201 59.5278 107.503 55.9619 107.503 48.4822V29.4557H103.078V31.2502C101.714 29.7769 99.8442 28.8193 97.3663 28.8193H97.3639ZM97.7744 32.9734C100.566 32.9734 103.433 35.3571 103.433 39.4278C103.433 43.5662 100.571 45.8461 97.7129 45.8461C94.677 45.8461 91.8525 43.3826 91.8525 39.4665C91.8525 35.3994 94.7869 32.9734 97.7744 32.9734Z" fill="#4885ED"/>
<path d="M127.278 28.7942C121.906 28.7942 117.396 33.069 117.396 39.3725C117.396 46.0455 122.423 50.0027 127.781 50.0027C132.264 50.0027 135.027 47.5514 136.657 45.3536L132.994 42.9167C132.044 44.3899 130.455 45.833 127.804 45.833C124.826 45.833 123.457 44.2028 122.608 42.6209L136.813 36.7279L136.088 35.0011C134.716 31.6199 131.514 28.7942 127.278 28.7942ZM127.463 32.8685C129.398 32.8685 130.791 33.8974 131.382 35.1315L121.896 39.096C121.485 36.0263 124.395 32.8685 127.45 32.8685H127.463Z" fill="#DB3236"/>
<path d="M110.613 49.3747H115.279V18.1506H110.613V49.3747Z" fill="#3CBA54"/>
</svg>
