<svg width="111" height="112" viewBox="0 0 111 112" fill="none" xmlns="http://www.w3.org/2000/svg">
<g clip-path="url(#clip0_167_948)">
<mask id="mask0_167_948" style="mask-type:luminance" maskUnits="userSpaceOnUse" x="0" y="0" width="111" height="112">
<path d="M0.585754 111.666H110.179V0.552326H0.585754V111.666Z" fill="white"/>
</mask>
<g mask="url(#mask0_167_948)">
<path fill-rule="evenodd" clip-rule="evenodd" d="M18.9701 0.536038H92.0246L92.9724 0.555646L93.8943 0.634076L94.813 0.75172L95.7124 0.911861L96.5956 1.12101L97.4659 1.36939L98.3137 1.66025L99.1422 1.99358L99.9513 2.36287L100.738 2.77138L101.505 3.22237L102.246 3.70277L102.959 4.21585L103.649 4.77142L104.316 5.3564L104.945 5.96752L105.554 6.61133L106.124 7.278L106.672 7.98064L107.178 8.70941L107.649 9.46106L108.087 10.2389L108.494 11.0362L108.864 11.8565L109.183 12.6964L109.474 13.5559L109.719 14.4383L109.925 15.3337L110.083 16.2455L110.199 17.1671L110.273 18.1116L110.296 19.0658V93.1425L110.273 94.0939L110.199 95.0315L110.083 95.9622L109.925 96.8717L109.719 97.7678L109.474 98.6495L109.183 99.5038L108.864 100.344L108.494 101.17L108.087 101.962L107.649 102.74L107.178 103.49L106.672 104.219L106.124 104.914L105.554 105.587L104.945 106.233L104.316 106.844L103.649 107.427L102.959 107.976L102.246 108.49L101.505 108.969L100.738 109.414L99.9513 109.823L99.1422 110.198L98.3137 110.525L97.4659 110.817L96.5956 111.067L95.7124 111.275L94.813 111.435L93.8943 111.553L92.9724 111.629L92.0246 111.65H18.9701L18.0246 111.629L17.1001 111.553L16.1821 111.435L15.2847 111.275L14.3943 111.067L13.5311 110.817L12.6817 110.525L11.8529 110.198L11.0377 109.823L10.2502 109.414L9.48974 108.969L8.74317 108.49L8.03077 107.976L7.33868 107.427L6.67432 106.844L6.04412 106.233L5.43455 105.587L4.86593 104.914L4.3247 104.219L3.81119 103.49L3.33846 102.74L2.90006 101.962L2.4959 101.17L2.126 100.344L1.80407 99.5038L1.51637 98.6495L1.26977 97.7678L1.06427 96.8717L0.906716 95.9622L0.790266 95.0315L0.714916 94.0939L0.694366 93.1425V19.0658L0.714916 18.1116L0.790266 17.1671L0.906716 16.2455L1.06427 15.3337L1.26977 14.4383L1.51637 13.5559L1.80407 12.6964L2.126 11.8565L2.4959 11.0362L2.90006 10.2389L3.33846 9.46106L3.81119 8.70941L4.3247 7.98064L4.86593 7.278L5.43455 6.61133L6.04412 5.96752L6.67432 5.3564L7.33868 4.77142L8.03077 4.21585L8.74317 3.70277L9.48974 3.22237L10.2502 2.77138L11.0377 2.36287L11.8529 1.99358L12.6817 1.66025L13.5311 1.36939L14.3943 1.12101L15.2847 0.911861L16.1821 0.75172L17.1001 0.634076L18.0246 0.555646L18.9701 0.536038Z" fill="#1A5493"/>
<path fill-rule="evenodd" clip-rule="evenodd" d="M9.82532 93.1284H18.3467V56.0852H9.82532V93.1284Z" fill="#FFF212"/>
<path fill-rule="evenodd" clip-rule="evenodd" d="M56.5299 64.5569H56.0431L55.5628 64.5732L55.089 64.5928L54.6312 64.6223L54.1799 64.6484L53.7351 64.6909L53.2967 64.7399L52.8647 64.7889L52.4457 64.851L52.0363 64.9131L51.6301 64.9817L51.2336 65.0569L50.85 65.1353L50.4729 65.217L50.1022 65.3085L49.7411 65.4L49.3898 65.4948L49.0481 65.5929L48.7193 65.6974L48.3969 65.802L48.081 65.9066L47.7813 66.0177L47.4879 66.1288L47.2042 66.2465L46.9302 66.3576L46.6659 66.4752L46.4113 66.5929L46.163 66.7105L45.931 66.8282L45.7053 66.9458L45.4926 67.0667L45.2862 67.1844L46.8916 72.642L47.0753 72.5309L47.2687 72.4198L47.4653 72.3087L47.6717 72.2041L47.8844 72.0995L48.1036 71.995L48.3292 71.8904L48.5613 71.7956L48.8031 71.6976L49.0481 71.5995L49.2963 71.5015L49.5477 71.4132L49.8024 71.3283L50.0635 71.24L50.3278 71.1551L50.5954 71.0799L50.8694 71.0015L51.1434 70.9328L51.4238 70.8642L51.6978 70.8021L51.9815 70.74L52.2684 70.6845L52.5488 70.6354L52.8357 70.5864L53.1162 70.5439L53.4063 70.5113L53.6932 70.4753L53.9736 70.4557L54.2605 70.4328L54.541 70.4132L54.8311 70.4067H55.1115L55.5628 70.4132L56.0012 70.4328L56.4106 70.4688L56.7942 70.5113L57.1649 70.5734L57.5163 70.642L57.8451 70.7237L58.1513 70.8152L58.4479 70.9198L58.7219 71.0309L58.9733 71.1485L59.2054 71.2727L59.4246 71.4067L59.6309 71.544L59.8243 71.691L59.9952 71.8348L60.1531 71.9884L60.3014 72.1486L60.4336 72.3022L60.5496 72.4623L60.6527 72.629L60.7495 72.7891L60.83 72.946L60.9042 73.1061L60.9687 73.2662L61.0138 73.4198L61.0557 73.5734L61.0911 73.7172L61.1169 73.8643L61.1331 74.0015L61.1459 74.1355V74.2597V74.5571L60.1241 74.5669L59.1248 74.593L58.1513 74.6421L57.2068 74.7107L56.2881 74.8022L55.3984 74.9199L54.5281 75.0506L53.6932 75.2107L52.8841 75.3839L52.1104 75.5865L51.3561 75.8088L50.6373 76.0506L49.9539 76.3153L49.2963 76.5996L48.6645 76.9068L48.0681 77.2336L47.5072 77.58L46.9786 77.9461L46.4789 78.335L46.0212 78.7533L45.5893 79.1837L45.1992 79.635L44.8414 80.1141L44.5126 80.6072L44.2322 81.121L43.9807 81.6628L43.768 82.2184L43.5971 82.8017L43.4585 83.3988L43.3554 84.0171L43.3006 84.6629L43.2812 85.3227L43.2877 85.7184L43.3135 86.1142L43.3618 86.51L43.4327 86.8989L43.5198 87.2878L43.6229 87.6767L43.7454 88.0587L43.8905 88.4339L44.0484 88.8018L44.2322 89.163L44.432 89.5172L44.6448 89.8643L44.8769 90.2045L45.1315 90.531L45.4055 90.8506L45.6924 91.1561L45.9986 91.4476L46.321 91.7254L46.6659 91.9895L47.0205 92.2395L47.3977 92.4754L47.7941 92.6977L48.2068 92.899L48.6387 93.0797L49.0835 93.2464L49.5413 93.3921L50.028 93.5173L50.5212 93.6212L51.0338 93.7046L51.5624 93.7673L52.1104 93.8019L52.6713 93.8157L53.013 93.8088L53.3515 93.7951L53.6803 93.781L54.0091 93.7533L54.3282 93.7186L54.6506 93.6768L54.9665 93.6284L55.2824 93.5729L55.5886 93.5032L55.8916 93.434L56.1914 93.3575L56.488 93.2742L56.7749 93.184L57.0618 93.0866L57.3422 92.9755L57.6162 92.8643L57.8837 92.7464L58.1513 92.6212L58.4124 92.4964L58.6671 92.3575L58.9121 92.2117L59.1506 92.0656L59.3924 91.9062L59.618 91.7463L59.8436 91.5797L60.0628 91.4061L60.2756 91.2254L60.4755 91.0378L60.6721 90.8506L60.8655 90.6561L61.0492 90.4545L61.2265 90.2463H61.3232L62.2548 93.1284H69.1886V76.7107L69.1789 76.0865L69.1467 75.4754L69.0984 74.8708L69.0307 74.2728L68.9404 73.6845L68.8244 73.1061L68.6954 72.544L68.5375 71.995L68.3505 71.4557L68.1539 70.9328L67.9186 70.4263L67.6671 69.9328L67.3867 69.4557L67.0837 68.9949L66.7484 68.5504L66.3938 68.1289L66.0102 67.7236L65.5912 67.3445L65.1463 66.9818L64.6725 66.6419L64.1728 66.3216L63.6377 66.0308L63.0768 65.7595L62.4805 65.5177L61.8583 65.2955L61.1943 65.1059L60.5012 64.9393L59.776 64.802L59.0152 64.6974L58.219 64.6223L57.3906 64.5732L56.5299 64.5569ZM61.3909 82.8851V83.0517L61.3845 83.2253L61.3716 83.3988L61.3587 83.5795L61.3361 83.753L61.3168 83.9338L61.2878 84.1073L61.2491 84.2808L61.233 84.3433L61.2072 84.4338L61.1879 84.5171L61.1653 84.5727L61.1395 84.642L61.1105 84.7116L61.0363 84.8851L60.9525 85.0518L60.8655 85.2184L60.7688 85.3851L60.6656 85.5449L60.556 85.7116L60.44 85.8711L60.3175 86.024L60.1853 86.1766L60.0564 86.3296L59.9113 86.4753L59.7631 86.6211L59.6116 86.76L59.4536 86.892L59.2828 87.024L59.1119 87.1489L58.9314 87.2672L58.7541 87.3851L58.5639 87.4894L58.3705 87.5933L58.1739 87.6907L57.9676 87.774L57.7613 87.8574L57.5421 87.9339L57.3229 87.9963L57.1037 88.0587L56.8716 88.1074L56.6395 88.1489L56.4042 88.1839L56.1592 88.2044L55.911 88.2254H55.666H55.4468L55.234 88.2116L55.0277 88.1976L54.8214 88.1698L54.6248 88.1352L54.4314 88.1005L54.2412 88.0518L54.0542 87.9963L53.8834 87.9407L53.7061 87.8711L53.5417 87.795L53.3837 87.7116L53.2258 87.6283L53.0839 87.5309L52.9389 87.4267L52.8099 87.3227L52.6778 87.2044L52.5617 87.0796L52.4457 86.9544L52.3425 86.8155L52.2458 86.6698L52.1523 86.524L52.0685 86.3642L51.9944 86.2044L51.9331 86.0377L51.8719 85.8573L51.8235 85.6766L51.7816 85.4894L51.7462 85.2877L51.7268 85.0864L51.7139 84.8782L51.7075 84.6629L51.7139 84.4197L51.7333 84.1906L51.7687 83.9615L51.8074 83.7393L51.8622 83.5308L51.9331 83.3226L52.0137 83.1282L52.104 82.9337L52.2071 82.7462L52.3167 82.5726L52.4392 82.3988L52.5746 82.2321L52.7197 82.0726L52.8776 81.9265L53.042 81.7808L53.2193 81.6419L53.4063 81.503L53.5965 81.3782L53.8028 81.2599L54.0155 81.1419L54.2347 81.0308L54.4668 80.9265L54.6989 80.8295L54.9471 80.7393L55.205 80.6487L55.4661 80.5726L55.7337 80.4961L56.0141 80.4196L56.2946 80.3572L56.5911 80.2948L56.8845 80.2392L57.1939 80.1906L57.4808 80.1487L57.7806 80.1072L58.0836 80.0726L58.3995 80.0376L58.7122 80.017L59.041 79.9892L59.3698 79.9752L59.7083 79.9615L59.9113 79.9543L60.1176 79.9474L60.3304 79.9405H60.5367H60.7495H60.959H61.1717H61.3909V82.8851Z" fill="#FFF212"/>
<path fill-rule="evenodd" clip-rule="evenodd" d="M92.7235 65.3708V81.642V81.8852L92.7106 82.1211L92.688 82.3505L92.6558 82.5728L92.6204 82.795L92.572 83.0032L92.5108 83.2117L92.4366 83.4061L92.3754 83.5656L92.298 83.7254L92.2174 83.8852L92.1336 84.045L92.0466 84.1976L91.9499 84.3574L91.8467 84.5173L91.7371 84.6699L91.6211 84.8228L91.505 84.9754L91.3729 85.1284L91.2439 85.2741L91.1085 85.413L90.9635 85.5519L90.812 85.6839L90.654 85.8156L90.4896 85.9408L90.3252 86.0656L90.1479 86.1768L89.9706 86.2879L89.7772 86.3853L89.587 86.4823L89.3872 86.5728L89.1809 86.649L88.9713 86.7255L88.7521 86.7879L88.5233 86.8434L88.2912 86.8853L88.0591 86.9268L87.8109 86.9477L87.5659 86.9686H87.3048L86.9889 86.9617L86.6826 86.9408L86.3796 86.9062L86.0927 86.8506L85.8187 86.7879L85.5512 86.7046L85.2997 86.6075L85.058 86.4964L84.8259 86.3784L84.6067 86.2395L84.3939 86.0866L84.1941 85.9199L84.0103 85.7464L83.8266 85.5519L83.6622 85.3506L83.5043 85.1352L83.3527 84.9061L83.2174 84.663L83.0916 84.4061L82.9691 84.1421L82.866 83.8643L82.7628 83.5728L82.6758 83.2672L82.5984 82.9545L82.5308 82.6283L82.4695 82.295L82.4211 81.9476L82.3792 81.5865L82.347 81.2185L82.3244 80.8365L82.3115 80.4476L82.3051 80.0449V65.3577H73.9884V81.5865V81.9963L74.0013 82.392L74.0174 82.7741L74.0368 83.1561L74.0658 83.531L74.098 83.8989L74.1399 84.2532L74.1818 84.6074L74.2366 84.9477L74.2914 85.281L74.3527 85.6075L74.4268 85.9268L74.5042 86.2395L74.5848 86.5451L74.6686 86.8434L74.7621 87.1284L74.8588 87.4131L74.9684 87.6908L75.0715 87.9618L75.1876 88.2255L75.3036 88.4824L75.4197 88.7324L75.5518 88.9755L75.6808 89.2187L75.8097 89.4477L75.9483 89.6768L76.0934 89.8991L76.2417 90.1076L76.3932 90.3157L76.5511 90.5174L76.7091 90.7118L76.8735 90.8991L77.0443 91.0867L77.2216 91.2602L77.3989 91.4341L77.5794 91.5935L77.7696 91.7533L77.9566 91.9063L78.1532 92.052L78.3531 92.1909L78.5594 92.323L78.7625 92.4478L78.9752 92.5658L79.188 92.6841L79.4072 92.788L79.6328 92.8923L79.8585 92.9825L80.0938 93.073L80.3323 93.1563L80.5644 93.2325L80.8126 93.3089L81.0512 93.3714L81.3058 93.4341L81.5508 93.4897L81.8055 93.5452L82.0666 93.5867L82.3244 93.6286L82.5856 93.6632L82.8531 93.691L83.1207 93.7188L83.3947 93.7397L83.6686 93.7465L83.9491 93.7603H84.2295H84.4778L84.7163 93.7534L84.9484 93.7465L85.1805 93.7325L85.4158 93.7119L85.6414 93.691L85.8671 93.6701L86.0863 93.6354L86.299 93.6076L86.5118 93.5658L86.7245 93.5312L86.9276 93.4825L87.1275 93.441L87.3273 93.3854L87.524 93.3299L87.7174 93.2743L88.0849 93.1491L88.4491 93.0174L88.7908 92.8785L89.1261 92.7396L89.4484 92.5867L89.7579 92.4341L90.0512 92.2674L90.3317 92.1007L90.5992 91.9269L90.8603 91.7533L91.1085 91.573L91.3471 91.3922L91.5727 91.2046L91.7855 91.0102L91.9853 90.8157L92.1755 90.6144L92.3593 90.42L92.5333 90.2255L92.688 90.038L92.8396 89.8576L92.9846 89.684L93.1136 89.5102L93.2296 89.3507L93.3392 89.184L94.4094 93.1285H101.163V65.3708H92.7235Z" fill="#FFF212"/>
<path fill-rule="evenodd" clip-rule="evenodd" d="M26.3407 56.0861V65.3576H22.4567V71.6845H26.3407V82.9753L26.3474 83.3226L26.3542 83.6628L26.3613 84.003L26.3748 84.3295L26.3955 84.656L26.4229 84.9753L26.4503 85.2877L26.4844 85.6005L26.5186 85.8988L26.5599 86.1975L26.6079 86.4894L26.6627 86.774L26.7175 87.0518L26.7791 87.3296L26.8406 87.5933L26.9093 87.8574L26.9844 88.1142L27.0666 88.3643L27.1488 88.6074L27.2381 88.8433L27.3338 89.0796L27.4299 89.3019L27.5324 89.5241L27.642 89.7323L27.7516 89.9408L27.8683 90.1421L27.9914 90.3365L28.1217 90.531L28.2519 90.7117L28.3889 90.8852L28.5327 91.0588L28.6764 91.2186L28.8134 91.3575L28.9504 91.4963L29.0942 91.6284L29.2383 91.7601L29.3956 91.8852L29.5532 92.0101L29.7244 92.1352L29.8959 92.2532L30.0671 92.3712L30.2521 92.4823L30.4368 92.5866L30.6286 92.6977L30.8275 92.7951L31.0261 92.8921L31.2385 92.9895L31.4438 93.0728L31.663 93.163L31.8822 93.2395L32.1082 93.3157L32.3345 93.3853L32.5672 93.4546L32.8071 93.5101L33.0466 93.5657L33.2948 93.6144L33.5398 93.6631L33.7944 93.7046L34.0459 93.7323L34.307 93.7601L34.5681 93.7879L34.8356 93.8019L35.1032 93.8088L35.3772 93.8157L35.8285 93.8088L36.2443 93.7951L36.6376 93.7742L36.9921 93.7464L37.3274 93.7117L37.6368 93.6699L37.9302 93.6212L38.1977 93.5657L38.4588 93.5101L38.6974 93.4477L38.923 93.3784L39.1487 93.3088L39.5742 93.1562L39.9932 92.9964V86.5449L39.8836 86.5864L39.7386 86.6283L39.5677 86.6698L39.355 86.7044L39.1164 86.7394L38.8489 86.76L38.562 86.7809L38.2525 86.7877L37.9785 86.7809L37.7239 86.7672L37.4789 86.7394L37.2468 86.6976L37.0276 86.6489L36.8213 86.5933L36.6214 86.524L36.4377 86.4407L36.2669 86.3505L36.1025 86.2531L35.9445 86.1351L35.8059 86.0171L35.6705 85.8851L35.548 85.7462L35.432 85.5933L35.3288 85.4266L35.2321 85.2599L35.1418 85.0727L35.0613 84.8851L34.9839 84.6838L34.9226 84.4684L34.8614 84.2531L34.813 84.0171L34.7647 83.7808L34.7325 83.5308L34.697 83.2671L34.6712 83.003L34.6486 82.7252L34.6358 82.4337L34.6229 82.1419L34.6164 81.8363V81.5239V71.6845H39.903V65.3576H34.6164V56.0861H26.3407Z" fill="#FFF212"/>
<path fill-rule="evenodd" clip-rule="evenodd" d="M89.5806 56.0798L84.4423 63.5669H90.3865L97.6297 56.0798H89.5806Z" fill="#FFF212"/>
</g>
</g>
<defs>
<clipPath id="clip0_167_948">
<rect width="109.486" height="111.096" fill="white" transform="translate(0.694946 0.554932)"/>
</clipPath>
</defs>
</svg>
