<svg width="144" height="68" viewBox="0 0 144 68" fill="none" xmlns="http://www.w3.org/2000/svg">
<g clip-path="url(#clip0_167_963)">
<path d="M70.8114 53.5927H65.078V45.6233H70.8114C73.5215 45.6649 75.3697 47.1992 75.3697 49.5995C75.3697 52.0004 73.5215 53.5927 70.8114 53.5927ZM71.5916 39.7385H58.3021V67.9151H65.078V59.8498H71.5505C78.6962 59.8498 82.1851 54.7588 82.1851 49.5995C82.1851 44.4405 78.7368 39.7385 71.5916 39.7385Z" fill="white"/>
<path d="M135.688 56.9344L122.81 39.7385H115.902V67.9151H122.81V50.6777L135.688 67.9151H142.595V39.7385H135.688V56.9344Z" fill="white"/>
<path d="M61.469 31.1819V28.447H64.2115C65.4669 28.447 66.1232 28.7784 66.1232 29.8146C66.1232 30.7263 65.4859 31.1819 64.2115 31.1819H61.469ZM61.469 22.9155H63.9991C65.2156 22.9155 65.795 23.3711 65.795 24.3242C65.795 25.4222 65.3703 25.8575 63.9991 25.8575H61.469V22.9155ZM69.5411 30.001C69.5411 28.4888 68.8461 27.2662 67.5717 26.5824C67.8613 26.3545 68.8075 25.3396 68.8075 23.8892C68.8075 21.631 67.6103 20.0149 63.806 20.0149H58.3021V34.1032H64.5785C68.1704 34.1032 69.5411 32.3007 69.5411 30.001Z" fill="white"/>
<path d="M96.8635 25.4845L104.034 34.1032H107.473V20.0149H104.034V28.6129L96.8635 20.0149H93.4242V34.1032H96.8635V25.4845Z" fill="white"/>
<path d="M125.737 31.3106L122.943 29.3871C122.275 30.2 121.261 30.7175 120.128 30.7175C118.11 30.7175 116.474 29.0793 116.474 27.0579C116.474 25.0385 118.11 23.4005 120.128 23.4005C121.257 23.4005 122.27 23.9158 122.937 24.7248L125.731 22.7993C124.446 21.1055 122.414 20.0149 120.128 20.0149C116.241 20.0149 113.093 23.1688 113.093 27.0579C113.093 30.949 116.241 34.1032 120.128 34.1032C122.418 34.1032 124.452 33.0084 125.737 31.3106Z" fill="white"/>
<path d="M136.976 23.3989C138.99 23.3989 140.623 25.039 140.623 27.0589C140.623 29.0788 138.99 30.7166 136.976 30.7166C134.961 30.7166 133.328 29.0788 133.328 27.0589C133.328 25.039 134.961 23.3989 136.976 23.3989ZM136.976 34.1032C140.855 34.1032 144 30.9495 144 27.0589C144 23.1683 140.855 20.0149 136.976 20.0149C133.096 20.0149 129.951 23.1683 129.951 27.0589C129.951 30.9495 133.096 34.1032 136.976 34.1032Z" fill="white"/>
<path d="M81.5365 23.8683L83.4363 28.5447C82.8034 28.6418 82.1599 28.694 81.5165 28.694C80.8736 28.694 80.2366 28.643 79.6085 28.547L81.5365 23.8683ZM78.3999 31.4785C79.4209 31.6898 80.4629 31.798 81.5165 31.798C82.4538 31.798 83.3936 31.7122 84.31 31.5433C84.4158 31.5238 84.5216 31.4987 84.6273 31.4768L85.6945 34.1032H89.2095L83.3444 20.0149H79.6684L73.7558 34.1032H77.3181L78.3999 31.4785Z" fill="white"/>
<path d="M96.2339 57.2153C94.9274 57.2153 93.6321 57.1121 92.3542 56.9177L96.2749 47.4458L100.138 56.9128C98.8515 57.1095 97.5424 57.2153 96.2339 57.2153ZM92.5219 39.7385L80.7802 67.9151H87.8012L89.9739 62.6659C92.0251 63.0883 94.1184 63.3046 96.2342 63.3046C98.1175 63.3046 100.006 63.133 101.845 62.7953C102.058 62.7561 102.27 62.7059 102.483 62.6621L104.627 67.9151H111.688L99.9059 39.7385H92.5219Z" fill="white"/>
<path d="M21.0725 45.4391C16.4643 45.4391 12.7185 41.7561 12.7185 37.2256C12.7185 32.6946 16.4643 29.0119 21.0725 29.0119C25.681 29.0119 29.4268 32.6946 29.4268 37.2256C29.4268 41.7561 25.681 45.4391 21.0725 45.4391ZM21.0725 17.1973C9.83957 17.1973 0.701843 26.1813 0.701843 37.2256V67.9152H12.7185V55.5217L13.6643 55.8864C16.0286 56.7935 18.5184 57.2537 21.0725 57.2537C32.3058 57.2537 41.4435 48.2697 41.4435 37.2256C41.4435 26.1813 32.3058 17.1973 21.0725 17.1973Z" fill="white"/>
<path d="M0.701843 11.5619H11.9409V0.29126H0.701843V11.5619Z" fill="#00C5FF"/>
</g>
<defs>
<clipPath id="clip0_167_963">
<rect width="143.298" height="67.6239" fill="white" transform="translate(0.701843 0.29126)"/>
</clipPath>
</defs>
</svg>
