<svg width="96" height="96" viewBox="0 0 96 96" fill="none" xmlns="http://www.w3.org/2000/svg">
<rect y="0.484375" width="95.0899" height="95.0899" rx="30" fill="white" fill-opacity="0.2"/>
<g clip-path="url(#clip0_235_316)">
<path d="M55.819 77.4929C56.5925 77.1546 57.1627 76.6265 57.3902 75.7901C57.4926 75.4118 57.666 75.3233 58.0485 75.4475C59.7079 75.9856 61.0062 75.2776 61.4882 73.5819C61.5721 73.285 61.7171 73.1723 62.0186 73.2008C63.4618 73.3421 64.4686 72.4357 64.7714 71.4023C64.898 70.9698 65.117 70.8599 65.5549 70.9427C66.5005 71.1211 67.3224 70.8357 67.9395 70.0877C68.5964 69.2912 68.6874 68.3848 68.3447 67.4199C68.2438 67.1359 67.8911 66.8633 68.1755 66.545C68.504 66.1767 68.9405 65.9483 69.4567 66.0311C69.9302 66.1068 70.3937 66.2224 70.8786 66.0953C72.0219 65.7956 72.9817 65.149 73.8775 64.4239C74.3709 64.0242 74.415 63.2049 74.0964 62.5854C73.8121 62.0302 73.4808 61.5006 73.1622 60.9653C71.2824 57.8137 69.4382 54.6406 67.5641 51.4847C67.4091 51.2235 67.2541 50.9637 67.0437 50.7425C66.5659 50.2372 65.9744 50.0602 65.3445 50.3342C64.4643 50.7168 63.6339 51.2035 62.8987 51.8316C62.0911 52.521 61.8977 53.4288 61.9802 54.4437C62.0342 55.1031 61.9133 55.2144 61.255 55.2416C60.7459 55.263 60.2511 55.1802 59.8075 54.9447C58.1467 54.0626 56.456 53.9855 54.717 54.6749C54.5534 54.7406 54.3672 54.7491 54.2022 54.8134C53.5936 55.0517 53.0448 54.9589 52.4774 54.6364C51.4451 54.0483 50.3559 54.0183 49.2383 54.4137C48.6354 54.6278 48.0467 54.8819 47.4424 55.0903C46.6759 55.3543 45.9436 55.2815 45.2313 54.8933C44.917 54.7234 44.7492 54.4965 44.7506 54.1325C44.7549 52.8065 44.1278 51.8673 42.986 51.2392C42.5495 50.9994 42.1386 50.7154 41.7034 50.4741C40.7991 49.9731 39.8891 50.2029 39.3615 51.0908C37.1206 54.8562 34.891 58.6302 32.6785 62.4127C32.1438 63.3262 32.34 64.2126 33.2316 64.7779C34.0392 65.2903 34.8213 65.857 35.7768 66.0953C36.3797 66.2452 36.9371 66.1253 37.496 65.9241C37.6296 65.8755 37.7547 65.8042 37.8913 65.7628C38.0775 65.7071 38.2482 65.7314 38.3761 65.8869C38.5027 66.0411 38.4145 66.191 38.3349 66.3309C38.2112 66.5478 38.0505 66.7405 37.9055 66.9432C36.4722 68.9558 37.9552 71.1754 39.8748 71.1254C40.2047 71.1168 40.3896 71.2724 40.509 71.5807C40.9441 72.7084 41.7646 73.3236 42.9789 73.3692C43.3116 73.3821 43.4794 73.5391 43.6046 73.8389C44.1776 75.202 45.1445 75.7316 46.6219 75.4875C46.966 75.4304 47.1793 75.5117 47.3798 75.8086C48.314 77.1989 49.7402 77.4944 51.1109 76.5409C51.566 76.224 51.9058 76.2112 52.3523 76.5138C52.9253 76.902 53.524 77.256 54.1624 77.5329C54.2705 77.58 54.407 77.62 54.3757 77.7913C54.7312 77.7913 55.0867 77.7913 55.4421 77.7913C55.4407 77.5315 55.6739 77.5557 55.819 77.4929ZM52.4845 59.9291C52.4845 59.4124 52.4703 58.8942 52.4888 58.3789C52.5243 57.3255 53.0533 56.6447 54.0657 56.3649C54.9359 56.1237 55.8147 55.9124 56.6906 55.6898C57.1385 55.577 57.5693 55.6455 57.9917 55.8139C58.5675 56.0423 59.1406 56.2793 59.7236 56.4891C60.5853 56.8003 61.464 56.8302 62.3314 56.5305C62.6314 56.4263 62.7921 56.4705 62.9073 56.7574C62.9528 56.8716 63.031 56.973 63.0964 57.0786C63.4163 57.5967 63.8699 57.758 64.2894 57.5011C64.7046 57.247 64.7743 56.776 64.4657 56.2393C64.2268 55.8239 63.9766 55.4143 63.7348 54.9989C63.1433 53.9812 63.3481 53.1662 64.3463 52.5638C64.7259 52.3354 65.1298 52.1399 65.4852 51.8787C65.8393 51.6175 66.0028 51.7102 66.209 52.0642C68.1556 55.3914 70.1193 58.7101 72.0787 62.0302C72.2778 62.367 72.4584 62.7153 72.6816 63.035C72.8921 63.3362 72.8124 63.4961 72.511 63.6545C72.1029 63.8686 71.7147 64.1198 71.318 64.3539C70.2985 64.952 69.488 64.7493 68.8908 63.7416C68.1755 62.534 67.4646 61.3236 66.7508 60.1146C66.6782 59.9919 66.6086 59.8691 66.5318 59.7492C66.2204 59.2596 65.7824 59.1255 65.3658 59.3881C64.9762 59.6322 64.8781 60.0904 65.1497 60.56C65.899 61.8503 66.6725 63.1278 67.4119 64.4239C67.52 64.6137 67.8855 64.795 67.611 65.0819C67.1788 65.5358 66.637 65.6728 66.2872 65.4644C62.903 63.4518 59.5202 61.4378 56.1375 59.4252C56.0465 59.371 55.9555 59.3153 55.8616 59.2653C55.1663 58.8885 54.6373 59.1711 54.5563 59.9605C54.4368 61.1224 53.8354 61.8475 52.9182 61.9702C52.5983 62.013 52.4632 61.9431 52.4788 61.5905C52.503 61.0353 52.4845 60.4815 52.4845 59.9291ZM37.7562 63.7887C37.1917 64.7408 36.3684 64.9406 35.4029 64.3796C35.0204 64.157 34.6606 63.8872 34.2625 63.7002C33.8544 63.5104 33.8188 63.3262 34.0506 62.9408C35.3133 60.8426 36.5489 58.7272 37.7946 56.6176C38.6875 55.1045 39.5905 53.5958 40.4678 52.0742C40.6654 51.7316 40.819 51.6075 41.1873 51.8715C41.6025 52.1699 42.0689 52.3997 42.5068 52.6666C42.9974 52.9663 43.2505 53.4131 43.2846 53.9384C43.2861 54.3366 43.1552 54.6421 42.9818 54.9375C41.2399 57.8879 39.5023 60.8412 37.7562 63.7887ZM40.6455 69.3355C40.4536 69.5867 40.1621 69.6866 39.8834 69.6709C39.0231 69.6538 38.5041 68.7745 38.9349 68.0623C39.2919 67.4713 39.7071 66.9118 40.1407 66.3751C40.5005 65.9298 41.1276 65.8941 41.5783 66.2267C42.0092 66.5464 42.1741 67.1373 41.8812 67.6041C41.5044 68.2036 41.0764 68.7731 40.6455 69.3355ZM43.852 71.3852C43.4382 71.9462 42.8282 72.0518 42.3149 71.6949C41.8144 71.3467 41.702 70.6943 42.0874 70.1391C42.8069 69.1028 43.5406 68.0751 44.2857 67.056C44.5971 66.6306 45.0222 66.4493 45.5469 66.642C46.0162 66.8147 46.2351 67.173 46.2664 67.5384C46.2778 67.9224 46.1726 68.1479 46.0261 68.352C45.3066 69.3655 44.59 70.3832 43.852 71.3852ZM46.9674 73.5405C46.5295 74.1429 45.8725 74.2756 45.355 73.886C44.8559 73.5106 44.789 72.8711 45.2057 72.2773C45.9109 71.2753 46.6262 70.279 47.3428 69.2827C47.6585 68.8445 48.0922 68.6775 48.6027 68.8445C49.069 68.9958 49.3008 69.3655 49.3492 69.8508C49.3392 70.1491 49.2183 70.4017 49.0491 70.6372C48.3538 71.605 47.667 72.5771 46.9674 73.5405ZM51.2745 73.9759C51.0029 74.4312 50.6886 74.868 50.3445 75.2719C50.0416 75.6288 49.6179 75.7116 49.18 75.5317C48.7463 75.3547 48.5188 75.015 48.5003 74.5426C48.4875 74.3384 48.5316 74.1443 48.6439 73.9802C48.9269 73.5705 49.1999 73.1537 49.517 72.7726C49.8781 72.3387 50.5208 72.2816 50.9574 72.5985C51.3896 72.9111 51.5546 73.5063 51.2745 73.9759ZM54.3359 75.9828C53.841 75.7059 53.3633 75.3975 52.8656 75.1235C52.6452 75.0022 52.6381 74.8965 52.7334 74.6653C53.423 73.0067 52.7774 71.5379 51.074 70.9013C50.8237 70.8085 50.8024 70.7086 50.8635 70.4874C51.3072 68.893 49.9848 67.0688 48.1547 67.1873C47.9159 67.203 47.8334 67.1259 47.7552 66.8932C47.1238 65.0234 45.1403 64.3768 43.5505 65.5215C43.3387 65.6743 43.259 65.7171 43.0685 65.4744C42.2424 64.4282 41.0494 64.1327 39.8293 64.6408C39.6416 64.7193 39.4696 64.8278 39.2975 64.648C39.0928 64.4339 39.3345 64.2968 39.4184 64.1541C40.9384 61.5634 42.4713 58.9813 43.9856 56.3863C44.1591 56.0894 44.28 56.0466 44.5843 56.2179C45.6863 56.8388 46.8451 56.8788 48.0239 56.4506C48.5899 56.245 49.1487 56.0209 49.7103 55.8025C50.08 55.6584 50.4583 55.5884 50.855 55.6198C51.1436 55.6427 51.4906 55.6726 51.6442 55.8739C51.8233 56.1094 51.4678 56.3035 51.3555 56.5148C51.064 57.0615 50.892 57.6367 50.8834 58.249C50.8664 59.4438 50.8607 60.6385 50.8806 61.8332C50.8991 62.918 51.6712 63.6317 53.0249 63.5817C54.1468 63.5047 55.1862 62.8252 55.8019 61.5506C55.9583 61.228 56.0564 61.2423 56.3237 61.4021C59.6724 63.4062 63.0296 65.3974 66.3811 67.3957C66.9612 67.7411 67.1688 68.1265 67.0565 68.656C66.9512 69.1442 66.6242 69.4183 66.145 69.5096C65.7853 69.5767 65.4923 69.3983 65.2008 69.2241C63.021 67.9267 60.8412 66.6306 58.66 65.3331C58.5377 65.2603 58.4182 65.1818 58.2888 65.1247C57.8694 64.9377 57.4371 65.0691 57.238 65.4573C57.029 65.8641 57.1158 66.2324 57.484 66.4921C57.831 66.7362 58.2078 66.9389 58.5747 67.1573C59.9923 68.0009 61.4142 68.8373 62.8291 69.6866C63.2812 69.9578 63.523 70.3632 63.3993 70.8999C63.2827 71.4037 62.9386 71.6921 62.4238 71.7463C62.1082 71.7806 61.8408 71.6364 61.5778 71.4794C59.9326 70.4974 58.2846 69.5196 56.638 68.5404C56.4091 68.4048 56.1801 68.2478 55.8957 68.3035C55.5559 68.3706 55.3071 68.5633 55.2331 68.9144C55.145 69.3341 55.3255 69.6367 55.6853 69.8493C56.8456 70.5359 58.0045 71.2253 59.1633 71.9148C59.2856 71.9875 59.4122 72.0532 59.5288 72.1317C60.0677 72.4943 60.2326 73.0966 59.9397 73.6162C59.6368 74.1557 58.9984 74.337 58.4182 74.003C57.3731 73.4021 56.3422 72.7726 55.3056 72.156C55.1378 72.0561 54.9729 71.9504 54.8008 71.8605C54.3544 71.6307 53.915 71.7306 53.6818 72.1089C53.4358 72.5071 53.5538 72.9667 54.0046 73.2522C54.4681 73.5477 54.953 73.8089 55.4194 74.1015C56.0223 74.4797 56.1986 75.1121 55.8687 75.6531C55.5516 76.1769 54.9345 76.3168 54.3359 75.9828Z" fill="#FFDD00"/>
<path d="M57.6234 75.4661C57.6831 75.4732 57.7215 75.4675 57.7499 75.4818C59.5188 76.3696 61.4342 75.1792 61.6389 73.552C61.673 73.2836 61.8124 73.315 62.0086 73.335C63.3893 73.4763 64.588 72.6999 64.9165 71.3881C65.0174 70.9841 65.1696 71.0027 65.4824 71.0669C66.536 71.2839 67.4219 70.9456 68.0902 70.1234C68.7628 69.297 68.8509 68.3592 68.4756 67.3586C68.3831 67.1131 68.022 66.9047 68.2068 66.6421C68.3561 66.4294 68.6832 66.3495 68.9164 66.191C69.0884 66.0754 69.2477 66.1054 69.4226 66.1582C70.3241 66.4351 71.1744 66.3038 71.9806 65.8299C72.501 65.5244 73.0243 65.2261 73.5362 64.9049C74.4519 64.3311 74.7164 63.3405 74.169 62.4085C71.928 58.5931 69.6771 54.7834 67.4176 50.978C66.8631 50.0445 65.8791 49.8062 64.9349 50.3414C64.4259 50.6298 63.9296 50.9395 63.4263 51.2407C62.1906 51.9815 61.6062 53.1619 61.8607 54.5822C61.9375 55.0118 61.7754 55.0675 61.4598 55.0974C61.0303 55.1388 60.608 55.1146 60.2028 54.9533C59.7264 54.7634 59.2486 54.5722 58.7737 54.378C57.912 54.0255 57.0347 53.907 56.1218 54.1582C55.3526 54.3695 54.5748 54.5465 53.8098 54.7677C53.4642 54.8676 53.1784 54.8477 52.8642 54.655C51.5944 53.877 50.2663 53.7957 48.8942 54.3795C48.4221 54.5807 47.94 54.7606 47.4594 54.9419C46.7001 55.2288 45.9707 55.1545 45.254 54.772C44.9682 54.6207 44.8658 54.448 44.8772 54.1111C44.9142 53.0035 44.4847 52.0857 43.5719 51.4548C42.9462 51.0223 42.2822 50.6383 41.611 50.2772C40.7778 49.829 39.8464 50.0874 39.326 50.8795C39.0914 51.235 38.8852 51.6104 38.669 51.9772C36.6627 55.3744 34.6564 58.7715 32.65 62.1687C31.9063 63.429 32.1381 64.3026 33.4093 65.062C33.6525 65.2076 33.9056 65.3389 34.1402 65.4987C35.3375 66.3166 36.5831 66.6264 37.9282 65.8713C38.1003 65.7742 38.2083 65.8641 38.3036 65.9498C38.4472 66.0783 38.2752 66.1682 38.2169 66.2581C38.0718 66.4822 37.9112 66.6949 37.7562 66.9118C37.0935 67.8296 36.967 68.8188 37.4846 69.8265C37.9922 70.8129 38.8368 71.3096 39.9573 71.2739C40.1848 71.2668 40.2773 71.3067 40.3611 71.5465C40.8076 72.8426 41.6835 73.4806 43.0273 73.4963C43.2932 73.4992 43.3671 73.5862 43.4482 73.826C43.943 75.2691 45.2554 75.9814 46.7413 75.606C47.0058 75.5389 47.0954 75.5832 47.2276 75.8087C48.1547 77.3988 50.0146 77.7085 51.3982 76.4995C51.6171 76.3083 51.748 76.3111 51.9783 76.451C52.7604 76.9277 53.5311 77.4287 54.3771 77.7884C54.4084 77.6172 54.2705 77.5772 54.1638 77.5301C53.524 77.2546 52.9253 76.8992 52.3537 76.5109C51.9072 76.2083 51.566 76.2226 51.1124 76.5381C49.7416 77.4916 48.3154 77.1975 47.3812 75.8058C47.1807 75.5089 46.9689 75.4276 46.6233 75.4847C45.1459 75.7287 44.1776 75.1992 43.606 73.836C43.4794 73.5363 43.3131 73.3779 42.9803 73.3664C41.766 73.3222 40.9456 72.7056 40.5104 71.5779C40.391 71.2696 40.2062 71.114 39.8763 71.1226C37.9567 71.1711 36.4736 68.953 37.9069 66.9404C38.0519 66.7377 38.2126 66.545 38.3363 66.328C38.4159 66.1882 38.5041 66.0383 38.3776 65.8841C38.251 65.7285 38.0789 65.7043 37.8927 65.7599C37.7562 65.8013 37.631 65.8727 37.4974 65.9212C36.94 66.1225 36.3812 66.2438 35.7783 66.0925C34.8227 65.8542 34.0407 65.2861 33.233 64.7751C32.3415 64.2084 32.1438 63.3234 32.6799 62.4099C34.8938 58.6273 37.122 54.8534 39.363 51.0879C39.8905 50.2001 40.8005 49.9703 41.7049 50.4713C42.14 50.7125 42.5523 50.9966 42.9875 51.2364C44.1293 51.8644 44.7563 52.8037 44.7521 54.1297C44.7506 54.4937 44.9184 54.7206 45.2327 54.8905C45.9465 55.2787 46.6774 55.3515 47.4438 55.0875C48.0495 54.8791 48.6368 54.625 49.2397 54.4109C50.3573 54.0155 51.4465 54.0455 52.4788 54.6335C53.0462 54.9561 53.5951 55.0475 54.2036 54.8105C54.3686 54.7463 54.5534 54.7377 54.7184 54.6721C56.4574 53.9827 58.1495 54.0597 59.8089 54.9419C60.2525 55.1774 60.7474 55.2602 61.2564 55.2388C61.9133 55.2116 62.0356 55.1003 61.9816 54.4409C61.8977 53.4274 62.0925 52.5196 62.9002 51.8288C63.6353 51.2007 64.4657 50.7125 65.3459 50.3314C65.9758 50.0574 66.5659 50.2358 67.0451 50.7397C67.2555 50.9609 67.4105 51.2207 67.5655 51.4819C69.4396 54.6378 71.2839 57.8095 73.1637 60.9625C73.4822 61.4978 73.8135 62.0274 74.0979 62.5826C74.4164 63.2021 74.3723 64.0214 73.8789 64.4211C72.9831 65.1462 72.0233 65.7928 70.88 66.0925C70.3952 66.2196 69.9316 66.1039 69.4581 66.0283C68.9405 65.9455 68.5054 66.1739 68.1769 66.5421C67.8926 66.8605 68.2452 67.1331 68.3462 67.4171C68.6888 68.382 68.5964 69.2884 67.9409 70.0849C67.3252 70.8314 66.5019 71.1183 65.5563 70.9399C65.117 70.8571 64.8994 70.967 64.7728 71.3995C64.47 72.4329 63.4633 73.3393 62.02 73.198C61.7185 73.168 61.5735 73.2808 61.4896 73.5791C61.0076 75.2748 59.7094 75.9842 58.05 75.4447C57.6675 75.3205 57.494 75.4104 57.3916 75.7873C57.1641 76.6223 56.5939 77.1518 55.8204 77.4901C55.6753 77.5529 55.4421 77.5287 55.445 77.787C56.6024 77.423 57.4044 76.7136 57.6234 75.4661Z" fill="#FFDD00"/>
<path d="M28.9544 23.3483C27.1357 23.9991 26.1845 25.3394 26.1845 27.2778C26.1831 41.366 26.1831 55.4557 26.1845 69.5439C26.1845 71.9062 27.7984 73.6062 30.1744 73.6533C32.8021 73.7047 35.4327 73.6704 38.0619 73.6633C38.0974 73.6633 38.133 73.6618 38.1685 73.659C38.7373 73.6147 39.0416 73.3721 39.0231 72.9781C39.006 72.6113 38.7103 72.3986 38.1514 72.3958C35.7356 72.3843 33.3197 72.3915 30.9024 72.3915C30.4574 72.3915 30.0152 72.3815 29.5772 72.2859C28.3216 72.0104 27.4998 71.0326 27.4571 69.7508C27.4514 69.591 27.4543 69.4297 27.4543 69.2698C27.4543 55.36 27.4543 41.4488 27.4543 27.539C27.4543 27.1651 27.4372 26.7897 27.5438 26.4243C27.8709 25.3009 28.7198 24.5886 29.8872 24.463C30.1346 24.4359 30.3834 24.4431 30.6323 24.4431C38.1998 24.4431 45.7687 24.4431 53.3362 24.4431C54.5136 24.4431 54.5363 24.4659 54.5378 25.6278C54.5392 26.8582 54.515 28.09 54.5449 29.319C54.589 31.0989 55.2885 32.4949 56.9721 33.2642C57.6134 33.5569 58.3045 33.6382 59.0012 33.6425C60.2625 33.6525 61.5237 33.6396 62.785 33.6468C63.6026 33.6511 63.7035 33.751 63.7035 34.5774C63.7078 38.7154 63.705 42.8519 63.7064 46.9899C63.7064 47.2211 63.6964 47.4538 63.7234 47.685C63.7661 48.0533 63.9566 48.2902 64.3406 48.2859C64.7231 48.2817 64.9093 48.0376 64.9577 47.675C64.9861 47.4623 64.9747 47.2482 64.9747 47.0341C64.9747 42.8434 64.952 38.6526 64.9904 34.4618C65.0018 33.2671 64.6065 32.2993 63.7988 31.4786C61.4512 29.0949 59.0894 26.7226 56.7119 24.3688C56.2313 23.8935 55.6952 23.4753 55.0226 23.2826C54.8819 23.2426 54.697 23.2184 54.6928 23.0014C46.2707 23.0014 37.85 23.0014 29.4279 23.0014C29.3952 23.284 29.1407 23.2812 28.9544 23.3483ZM56.0166 25.889C58.104 27.9844 60.1643 30.0541 62.2589 32.158C61.8863 32.158 61.5066 32.158 61.1256 32.158C60.2923 32.158 59.4591 32.168 58.6258 32.1552C57.0844 32.1338 56.0535 31.1289 56.0208 29.5887C55.9967 28.3612 56.0166 27.1351 56.0166 25.889Z" fill="#FFDD00"/>
<path d="M29.3668 23.0757C27.1471 23.6352 26.0011 25.0883 26.0011 27.3692C25.9996 41.3846 25.9996 55.4 26.0011 69.4154C26.0011 72.0975 27.7202 73.8089 30.4062 73.8117C32.5206 73.8146 34.6336 73.8117 36.748 73.8117C37.2983 73.8117 37.85 73.8274 38.4003 73.806C38.9364 73.7846 39.2577 73.4478 39.2449 72.971C39.2321 72.5142 38.9193 72.2273 38.4017 72.2017C38.2595 72.1945 38.1173 72.2002 37.9751 72.2002C35.4711 72.2002 32.9657 72.1588 30.4617 72.2145C28.7113 72.253 27.5695 71.0441 27.5851 69.3412C27.6377 63.2249 27.6064 57.1086 27.6064 50.9937C27.6064 43.0946 27.605 35.1955 27.6078 27.2964C27.6078 25.6992 28.6231 24.6158 30.1488 24.6144C38.0889 24.6072 46.029 24.6129 53.969 24.6044C54.3103 24.6044 54.4226 24.6857 54.4183 25.0454C54.397 26.4899 54.4056 27.9344 54.4098 29.3789C54.4183 32.0282 56.146 33.7667 58.7751 33.7738C60.143 33.7767 61.5109 33.7981 62.8774 33.7624C63.3907 33.7496 63.5599 33.8495 63.5557 34.4162C63.5272 38.714 63.54 43.0104 63.54 47.3082C63.54 47.4681 63.5287 47.6308 63.5471 47.7892C63.5998 48.246 63.8756 48.5072 64.3192 48.5186C64.7657 48.5315 65.0487 48.2717 65.1297 47.8264C65.1582 47.6708 65.1411 47.5066 65.1411 47.3453C65.1411 43.0118 65.1269 38.6797 65.1511 34.3462C65.1582 33.1643 64.7586 32.2194 63.924 31.393C61.6218 29.1149 59.3368 26.8182 57.0674 24.5073C56.3849 23.8122 55.6654 23.2184 54.6956 23C54.6999 23.217 54.8833 23.2412 55.0255 23.2812C55.6995 23.4739 56.2342 23.8907 56.7148 24.3674C59.0922 26.7226 61.4526 29.0935 63.8017 31.4772C64.6093 32.2979 65.0046 33.2657 64.9932 34.4604C64.9549 38.6512 64.979 42.842 64.9776 47.0327C64.9776 47.2468 64.989 47.4609 64.9605 47.6736C64.9122 48.0347 64.7245 48.2803 64.3434 48.2845C63.9595 48.2888 63.769 48.0504 63.7263 47.6836C63.6993 47.4524 63.7092 47.2211 63.7092 46.9885C63.7078 42.8505 63.7107 38.714 63.7064 34.576C63.705 33.7496 63.604 33.6497 62.7878 33.6454C61.5266 33.6382 60.2653 33.6497 59.0041 33.6411C58.3073 33.6354 57.6163 33.5554 56.975 33.2628C55.2914 32.4935 54.5918 31.0975 54.5477 29.3176C54.5179 28.0872 54.5421 26.8568 54.5406 25.6264C54.5392 24.4645 54.5165 24.4416 53.3391 24.4416C45.7716 24.4416 38.2027 24.4416 30.6351 24.4416C30.3863 24.4416 30.1375 24.4359 29.89 24.4616C28.7226 24.5872 27.8737 25.3009 27.5467 26.4228C27.4401 26.7897 27.4571 27.1651 27.4571 27.5376C27.4557 41.4474 27.4571 55.3586 27.4571 69.2684C27.4571 69.4283 27.4557 69.5896 27.46 69.7494C27.5026 71.0312 28.3245 72.009 29.5801 72.2844C30.018 72.3801 30.4602 72.3901 30.9053 72.3901C33.3212 72.3901 35.737 72.3829 38.1543 72.3943C38.7131 72.3972 39.0089 72.6099 39.0259 72.9767C39.0444 73.3707 38.7401 73.6133 38.1714 73.6576C38.1358 73.6604 38.1003 73.6619 38.0647 73.6619C35.4356 73.6676 32.805 73.7033 30.1773 73.6519C27.8012 73.6048 26.1873 71.9033 26.1873 69.5425C26.1859 55.4543 26.1859 41.3646 26.1873 27.2764C26.1873 25.338 27.1386 23.9992 28.9573 23.3469C29.1435 23.2798 29.3981 23.284 29.4336 23C29.4109 23.0271 29.3938 23.0685 29.3668 23.0757Z" fill="#FFDD00"/>
<path d="M58.7965 42.7221C58.6301 42.6764 58.4438 42.695 58.2661 42.695C49.7914 42.6935 41.3167 42.6935 32.842 42.695C32.6656 42.695 32.4808 42.6821 32.313 42.7292C31.9049 42.8405 31.6703 43.1332 31.7016 43.5542C31.7314 43.9682 31.976 44.2437 32.4083 44.295C32.5661 44.3136 32.7282 44.3022 32.8875 44.3022C37.1163 44.3022 41.3437 44.3022 45.5725 44.3022C49.7828 44.3022 53.9932 44.3022 58.2049 44.3022C58.3642 44.3022 58.5263 44.3107 58.6841 44.2965C59.1121 44.2565 59.3709 44.0167 59.415 43.5871C59.4633 43.1303 59.223 42.842 58.7965 42.7221Z" fill="#FFDD00"/>
<path d="M58.8491 37.7876C58.6671 37.7362 58.4609 37.7562 58.2661 37.7562C54.0557 37.7548 49.8454 37.7548 45.6336 37.7548C44.1235 37.7548 42.6135 37.7548 41.1034 37.7548C38.278 37.7548 35.454 37.7519 32.6287 37.7562C32.0542 37.7576 31.6916 38.0745 31.6902 38.5484C31.6888 39.0237 32.0542 39.3449 32.6216 39.3634C32.7097 39.3663 32.7993 39.3634 32.8875 39.3634C41.3437 39.3634 49.8013 39.3634 58.2575 39.362C58.4353 39.362 58.6187 39.3791 58.7879 39.3363C59.169 39.2407 59.4093 38.9909 59.4221 38.5812C59.4377 38.1787 59.2344 37.8961 58.8491 37.7876Z" fill="#FFDD00"/>
<path d="M32.2163 33.6996C32.4125 33.7652 32.6343 33.771 32.8448 33.771C34.9037 33.7752 36.9641 33.7738 39.0231 33.7738C41.065 33.7738 43.1069 33.7738 45.1488 33.7738C45.9635 33.7738 46.3531 33.5212 46.3716 32.9859C46.3901 32.4349 45.9792 32.158 45.1402 32.158C41.0564 32.158 36.9727 32.158 32.8903 32.1594C32.6955 32.1594 32.4964 32.1594 32.3073 32.198C31.9262 32.2751 31.7272 32.552 31.7016 32.9145C31.6745 33.2828 31.8551 33.5783 32.2163 33.6996Z" fill="#FFDD00"/>
</g>
<defs>
<clipPath id="clip0_235_316">
<rect width="52" height="58" fill="white" transform="translate(22 21)"/>
</clipPath>
</defs>
</svg>
