<svg width="21" height="16" viewBox="0 0 21 16" fill="none" xmlns="http://www.w3.org/2000/svg">
<path d="M19.6782 5.04346C18.7797 5.74658 17.6469 6.60596 13.6625 9.49658C12.8813 10.0825 11.436 11.3716 10.0688 11.3716C8.66254 11.3716 7.25629 10.0825 6.43597 9.49658C2.4516 6.60596 1.31879 5.74658 0.420349 5.04346C0.264099 4.92627 0.0687866 5.04346 0.0687866 5.23877V13.2075C0.0687866 14.2622 0.889099 15.0825 1.94379 15.0825H18.1938C19.2094 15.0825 20.0688 14.2622 20.0688 13.2075V5.23877C20.0688 5.04346 19.8344 4.92627 19.6782 5.04346ZM10.0688 10.0825C10.9672 10.1216 12.2563 8.94971 12.9203 8.48096C18.1157 4.73096 18.5063 4.37939 19.6782 3.44189C19.9125 3.28564 20.0688 3.01221 20.0688 2.69971V1.95752C20.0688 0.941895 19.2094 0.0825195 18.1938 0.0825195H1.94379C0.889099 0.0825195 0.0687866 0.941895 0.0687866 1.95752V2.69971C0.0687866 3.01221 0.185974 3.28564 0.420349 3.44189C1.59222 4.37939 1.98285 4.73096 7.17816 8.48096C7.84222 8.94971 9.13129 10.1216 10.0688 10.0825Z" fill="#FFDD00"/>
</svg>
