<svg width="27" height="27" viewBox="0 0 27 27" fill="none" xmlns="http://www.w3.org/2000/svg">
<path d="M23.4375 0.433594C24.9609 0.433594 26.25 1.72266 26.25 3.24609V23.8711C26.25 25.4531 24.9609 26.6836 23.4375 26.6836H15.3515V17.7773H18.75L19.3945 13.5586H15.3515V10.8633C15.3515 9.69141 15.9375 8.57812 17.7539 8.57812H19.5703V5.00391C19.5703 5.00391 17.9297 4.71094 16.289 4.71094C13.0078 4.71094 10.8398 6.76172 10.8398 10.3945V13.5586H7.14841V17.7773H10.8398V26.6836H2.81247C1.23044 26.6836 -3.05176e-05 25.4531 -3.05176e-05 23.8711V3.24609C-3.05176e-05 1.72266 1.23044 0.433594 2.81247 0.433594H23.4375Z" fill="#FFDD00"/>
</svg>
