<svg width="33" height="32" viewBox="0 0 33 32" fill="none" xmlns="http://www.w3.org/2000/svg">
<g clip-path="url(#clip0_174_735)">
<path fill-rule="evenodd" clip-rule="evenodd" d="M16.5938 0C25.4338 0 32.5938 7.16 32.5938 16C32.5938 23.08 28.0138 29.06 21.6538 31.18C20.8538 31.32 20.5538 30.84 20.5538 30.42C20.5538 30.04 20.5737 28.78 20.5737 27.44C24.5938 28.18 25.6337 26.46 25.9538 25.56C26.1337 25.1 26.9138 23.68 27.5938 23.3C28.1537 23 28.9538 22.26 27.6137 22.24C26.3538 22.22 25.4538 23.4 25.1537 23.88C23.7137 26.3 21.4137 25.62 20.4937 25.2C20.3537 24.16 19.9338 23.46 19.4738 23.06C23.0338 22.66 26.7537 21.28 26.7537 15.16C26.7537 13.42 26.1337 11.98 25.1137 10.86C25.2737 10.46 25.8338 8.82 24.9538 6.62C24.9538 6.62 23.6138 6.2 20.5538 8.26C19.2738 7.9 17.9137 7.72 16.5537 7.72C15.1937 7.72 13.8337 7.9 12.5537 8.26C9.49375 6.18 8.15375 6.62 8.15375 6.62C7.27375 8.82 7.83375 10.46 7.99375 10.86C6.97375 11.98 6.35375 13.4 6.35375 15.16C6.35375 21.3 10.0938 22.66 13.6537 23.06C13.0737 23.56 12.5737 24.52 12.5737 26.02C12.5737 28.16 12.5938 29.88 12.5938 30.42C12.5938 30.84 12.2937 31.34 11.4937 31.18C5.17375 29.06 0.59375 23.06 0.59375 16C0.59375 7.16 7.75375 0 16.5938 0Z" fill="white"/>
</g>
<defs>
<clipPath id="clip0_174_735">
<rect width="32" height="32" rx="2" transform="matrix(-1 0 0 1 32.5938 0)" fill="white"/>
</clipPath>
</defs>
</svg>
