<svg width="23" height="24" viewBox="0 0 23 24" fill="none" xmlns="http://www.w3.org/2000/svg">
<path d="M22.1939 12.264C22.1939 11.52 22.1199 10.752 21.9966 10.032H11.3159V14.28H17.4333C17.1866 15.648 16.3726 16.848 15.1639 17.616L18.8146 20.376C20.9606 18.432 22.1939 15.6 22.1939 12.264Z" fill="white"/>
<path d="M11.3157 23.016C14.3744 23.016 16.9397 22.032 18.8144 20.352L15.1637 17.616C14.1524 18.288 12.8451 18.672 11.3157 18.672C8.35573 18.672 5.86439 16.728 4.95173 14.136L1.20239 16.944C3.12639 20.664 7.02373 23.016 11.3157 23.016Z" fill="white"/>
<path d="M4.95183 14.112C4.48317 12.744 4.48317 11.256 4.95183 9.888L1.2025 7.056C-0.400833 10.176 -0.400833 13.848 1.2025 16.944L4.95183 14.112Z" fill="white"/>
<path d="M11.3157 5.352C12.9191 5.328 14.4977 5.928 15.6571 7.008L18.8884 3.84C16.8411 1.968 14.1277 0.96 11.3157 0.984C7.02373 0.984 3.12639 3.336 1.20239 7.056L4.95173 9.888C5.86439 7.272 8.35573 5.352 11.3157 5.352Z" fill="white"/>
</svg>
