<svg width="28" height="27" viewBox="0 0 28 27" fill="none" xmlns="http://www.w3.org/2000/svg">
<path d="M13.8896 10.4534C15.5888 10.4534 16.9951 11.8596 16.9951 13.5588C16.9951 15.3167 15.5888 16.7229 13.8896 16.7229C12.1318 16.7229 10.7256 15.3167 10.7256 13.5588C10.7256 11.8596 12.1318 10.4534 13.8896 10.4534ZM21.1553 8.05103C21.6826 9.28149 21.5654 12.2112 21.5654 13.5588C21.5654 14.9651 21.6826 17.8948 21.1553 19.1252C20.8623 19.9456 20.2178 20.5901 19.3974 20.8831C18.167 21.4104 15.2373 21.2932 13.8896 21.2932C12.4834 21.2932 9.55369 21.4104 8.32322 20.8831C7.50291 20.5901 6.85838 19.9456 6.56541 19.1252C6.09666 17.8948 6.15525 14.9651 6.15525 13.5588C6.15525 12.2112 6.09666 9.28149 6.56541 8.05103C6.85838 7.23071 7.50291 6.58618 8.32322 6.29321C9.55369 5.76587 12.4834 5.88306 13.8896 5.88306C15.2373 5.88306 18.167 5.76587 19.3974 6.29321C20.2178 6.58618 20.8623 7.23071 21.1553 8.05103ZM13.8896 18.3635V18.4221C16.5263 18.4221 18.6943 16.2542 18.6943 13.6174V13.5588C18.6943 10.9221 16.5263 8.75415 13.8896 8.75415C11.1943 8.75415 9.08494 10.9221 9.08494 13.5588C9.08494 16.2542 11.1943 18.3635 13.8896 18.3635ZM18.8701 9.69165C19.456 9.69165 19.9834 9.2229 19.9834 8.57837C19.9834 7.93384 19.456 7.46509 18.8701 7.46509C18.2256 7.46509 17.7568 7.93384 17.7568 8.57837C17.7568 9.2229 18.2256 9.69165 18.8701 9.69165ZM24.2021 0.433838C25.7256 0.433838 27.0146 1.7229 27.0146 3.24634V23.8713C27.0146 25.4534 25.7256 26.6838 24.2021 26.6838H3.57713C1.99509 26.6838 0.764626 25.4534 0.764626 23.8713V3.24634C0.764626 1.7229 1.99509 0.433838 3.57713 0.433838H24.2021ZM23.1474 17.426C23.2646 15.9026 23.2646 11.2737 23.1474 9.75024C23.0888 8.22681 22.7373 6.87915 21.6826 5.82446C20.5693 4.71118 19.2217 4.35962 17.7568 4.30103C16.1748 4.18384 11.5459 4.18384 10.0224 4.30103C8.499 4.35962 7.15134 4.71118 6.09666 5.76587C4.98338 6.87915 4.63181 8.22681 4.57322 9.69165C4.45603 11.2737 4.45603 15.9026 4.57322 17.426C4.63181 18.9495 4.98338 20.2971 6.09666 21.3518C7.15134 22.4651 8.499 22.8167 10.0224 22.8752C11.5459 22.9924 16.1748 22.9924 17.7568 22.8752C19.2217 22.8167 20.5693 22.4651 21.6826 21.3518C22.7373 20.2971 23.0888 18.9495 23.1474 17.426Z" fill="#FFDD00"/>
</svg>
