<svg width="219" height="55" viewBox="0 0 219 55" fill="none" xmlns="http://www.w3.org/2000/svg">
<path d="M216.786 6.27521C217.606 6.39345 218.366 5.82461 218.485 5.00466C218.603 4.18472 218.034 3.42417 217.214 3.30592L216.786 6.27521ZM0.739876 51.881C26.526 56.4215 44.9559 54.655 60.1289 49.6703C75.2502 44.7027 87.0541 36.5541 99.4795 28.5939C111.933 20.6158 125.117 12.7451 143.225 8.00057C161.333 3.25588 184.465 1.6143 216.786 6.27521L217.214 3.30592C184.589 -1.39887 161.042 0.231002 142.465 5.09853C123.886 9.96625 110.379 18.0485 97.8611 26.0678C85.3158 34.1049 73.8707 41.9981 59.1926 46.8202C44.5661 51.6253 26.6462 53.3965 1.26012 48.9265L0.739876 51.881Z" fill="white"/>
</svg>
