<svg width="35" height="34" viewBox="0 0 35 34" fill="none" xmlns="http://www.w3.org/2000/svg">
<path d="M8.79808 34V12.9766H2.25901V34H8.79808ZM5.49339 10.1641C7.60276 10.1641 9.29026 8.40625 9.29026 6.29688C9.29026 4.25781 7.60276 2.57031 5.49339 2.57031C3.45433 2.57031 1.76683 4.25781 1.76683 6.29688C1.76683 8.40625 3.45433 10.1641 5.49339 10.1641ZM33.1965 34H33.2668V22.4688C33.2668 16.8438 32.0012 12.4844 25.3918 12.4844C22.2278 12.4844 20.1184 14.2422 19.2043 15.8594H19.134V12.9766H12.8762V34H19.4153V23.5938C19.4153 20.8516 19.9075 18.25 23.2825 18.25C26.6575 18.25 26.7278 21.3438 26.7278 23.8047V34H33.1965Z" fill="white"/>
</svg>
