<svg width="27" height="27" viewBox="0 0 27 27" fill="none" xmlns="http://www.w3.org/2000/svg">
<path d="M25.022 0.433838C26.0181 0.433838 26.897 1.31274 26.897 2.36743V24.8088C26.897 25.8635 26.0181 26.6838 25.022 26.6838H2.46344C1.46735 26.6838 0.647034 25.8635 0.647034 24.8088V2.36743C0.647034 1.31274 1.46735 0.433838 2.46344 0.433838H25.022ZM8.55719 22.9338V10.4534H4.69V22.9338H8.55719ZM6.6236 8.69556C7.85406 8.69556 8.85016 7.69946 8.85016 6.46899C8.85016 5.23853 7.85406 4.18384 6.6236 4.18384C5.33453 4.18384 4.33844 5.23853 4.33844 6.46899C4.33844 7.69946 5.33453 8.69556 6.6236 8.69556ZM23.147 22.9338V16.0784C23.147 12.7385 22.3853 10.1018 18.4595 10.1018C16.5845 10.1018 15.2955 11.1565 14.7681 12.1526H14.7095V10.4534H11.0181V22.9338H14.8853V16.7815C14.8853 15.1409 15.1783 13.5588 17.2291 13.5588C19.2213 13.5588 19.2213 15.4338 19.2213 16.8401V22.9338H23.147Z" fill="#FFDD00"/>
</svg>
