<svg width="16" height="21" viewBox="0 0 16 21" fill="none" xmlns="http://www.w3.org/2000/svg">
<path d="M6.78754 20.3276C7.1391 20.8745 7.95941 20.8745 8.31097 20.3276C14.0141 12.1245 15.0688 11.2651 15.0688 8.21826C15.0688 4.07764 11.7094 0.718262 7.56879 0.718262C3.3891 0.718262 0.0687866 4.07764 0.0687866 8.21826C0.0687866 11.2651 1.08441 12.1245 6.78754 20.3276ZM7.56879 11.3433C5.81097 11.3433 4.44379 9.97607 4.44379 8.21826C4.44379 6.49951 5.81097 5.09326 7.56879 5.09326C9.28754 5.09326 10.6938 6.49951 10.6938 8.21826C10.6938 9.97607 9.28754 11.3433 7.56879 11.3433Z" fill="#FFDD00"/>
</svg>
