<svg width="141" height="38" viewBox="0 0 141 38" fill="none" xmlns="http://www.w3.org/2000/svg">
<path d="M3.38269 16.0758V4.78354H0V0H13.8203C15.1128 0.118412 16.1834 0.451692 17.0299 0.999839C17.8771 1.54799 18.4789 2.311 18.8353 3.2881C19.1625 4.473 19.2955 5.36227 19.2365 5.95433C19.1767 6.54718 19.0579 7.10238 18.8801 7.62073C18.7016 8.13908 18.2115 8.73899 17.409 9.42044C16.6066 10.1019 15.5368 10.5426 14.1994 10.7426H9.20406V16.0751H3.38269V16.0758ZM9.20406 3.99936V6.97927H13.2948C13.5119 6.97927 13.7479 6.89928 14.0028 6.73852C14.2576 6.57776 14.3922 6.17312 14.4071 5.52303C14.3693 4.90352 14.2175 4.49418 13.9516 4.29656C13.6857 4.09895 13.4631 3.99936 13.283 3.99936H9.20406Z" fill="#FFDD00"/>
<path d="M20.2961 4.78354V0H33.8316L39.2258 16.0758H33.1299L32.1112 13.1743H27.3085L26.2898 16.0758H20.5196L24.2397 4.78354H20.2961ZM29.8385 3.50845L27.5249 9.88076H31.9727L29.8385 3.50845Z" fill="#FFDD00"/>
<path d="M40.907 16.0758V4.78354H37.5243V0H50.5138C51.8142 0 52.9604 0.170953 53.9531 0.512074C54.9451 0.853196 55.7837 1.31351 56.4673 1.89224C57.1509 2.47098 57.7205 3.25438 58.176 4.24089C58.6307 5.22818 58.858 6.51189 58.858 8.09282C58.7754 9.55533 58.5268 10.7983 58.1138 11.8224C57.7 12.8466 57.1517 13.6558 56.4673 14.2495C55.7829 14.8431 54.9467 15.3034 53.9586 15.6296C52.9698 15.9566 51.7316 16.1049 50.2432 16.0751H40.907V16.0758ZM46.335 3.99936V12.0765H49.4038C50.0961 12.0765 50.6538 11.9298 51.0778 11.6373C51.5019 11.3441 51.848 10.97 52.1155 10.5136C52.3837 10.0572 52.5544 9.23616 52.6292 8.04968C52.6071 6.96672 52.4561 6.16763 52.1768 5.65242C51.8976 5.13721 51.5388 4.73257 51.0999 4.44007C50.6609 4.14678 50.0882 4.00092 49.381 4.00092H46.335V3.99936Z" fill="#FFDD00"/>
<path d="M59.6297 4.78354V0H73.1652L78.5594 16.0758H72.4808L71.4621 13.1743H66.6594L65.6407 16.0758H59.8531L63.5733 4.78354H59.6297ZM69.1894 3.50845L66.8758 9.88076H71.3236L69.1894 3.50845Z" fill="#FFDD00"/>
<path d="M90.863 9.26282L89.1653 16.0758H83.9182L80.2091 4.78354H76.8578V0H84.251L86.4623 6.94712L88.3834 0H93.208L95.4524 6.94712L96.9494 0H102.142L98.1554 16.0758H92.9067L90.863 9.26282Z" fill="#FFDD00"/>
<path d="M100.537 4.78354V0H114.072L119.466 16.0758H113.374L112.355 13.1743H107.552L106.533 16.0758H100.759L104.479 4.78354H100.537ZM110.083 3.50845L107.769 9.88076H112.217L110.083 3.50845Z" fill="#FFDD00"/>
<path d="M121.148 16.0758V0H126.395L131.217 6.01629V0H140.972V4.78354H136.488V16.0758H131.241L126.418 10.0643V16.0758H121.148Z" fill="#FFDD00"/>
<path d="M57.8991 31.2891H63.4058V28.5444H57.8991V26.6624H66.4738V21.8788H51.8417H49.3243H36.3443V26.6624H41.4576V37.9547H46.7283V26.6624H49.3243H51.8417H52.6284V37.9547H67.8111V33.1711H57.8991V31.2891Z" fill="#FFDD00"/>
<path d="M106.437 21.8788H102.267H101.874H97.0753V27.4466H92.8273V21.8788H81.4992V21.9329C80.6504 21.7196 79.5538 21.5777 78.2086 21.5079C76.5393 21.5973 75.2766 21.8404 74.42 22.2372C73.5633 22.6348 72.7152 23.1618 71.8774 23.8189C71.0396 24.4761 70.3835 25.3003 69.9108 26.2922C69.4372 27.2835 69.2012 28.426 69.2012 29.7184C69.2012 31.0256 69.438 32.1752 69.9108 33.1664C70.3835 34.1576 71.0396 34.9826 71.8774 35.6398C72.716 36.2969 73.5633 36.8247 74.42 37.2215C75.2766 37.6191 76.5393 37.8621 78.2086 37.9515C79.9369 37.8621 81.2553 37.6543 82.1647 37.3273C83.0733 37.0003 83.9898 36.4067 84.9142 35.5449L81.7399 32.0247C81.2034 32.4701 80.7267 32.79 80.3098 32.9829C79.892 33.1758 79.2069 33.3021 78.2534 33.3617C77.3291 33.2433 76.6399 33.0535 76.186 32.7932C75.7313 32.5336 75.3404 32.1807 75.0123 31.7345C74.6843 31.2891 74.4908 30.6202 74.431 29.7293C74.4908 28.8377 74.6843 28.1696 75.0123 27.7242C75.3404 27.2788 75.7313 26.9259 76.186 26.6655C76.6407 26.406 77.3299 26.2162 78.2534 26.097C79.2069 26.1566 79.892 26.2828 80.3098 26.4757C80.7267 26.6687 81.2042 26.9886 81.7399 27.434L82.4369 26.6608H87.5566V37.9531H92.8273V32.1501H96.9967V37.9531H102.267V26.6624H106.437V21.8788Z" fill="#FFDD00"/>
</svg>
