<svg width="496" height="134" viewBox="0 0 496 134" fill="none" xmlns="http://www.w3.org/2000/svg">
<path d="M11.8785 56.4511V16.7976H0V0H48.5305C53.0691 0.41581 56.8288 1.58614 59.8012 3.51098C62.7763 5.43582 64.8896 8.11518 66.141 11.5463C67.2902 15.7072 67.757 18.8299 67.5498 20.9089C67.3399 22.9907 66.9228 24.9404 66.2984 26.7606C65.6714 28.5808 63.9504 30.6874 61.1327 33.0803C58.315 35.4733 54.5581 37.0209 49.862 37.7231H32.3205V56.4483H11.8785V56.4511ZM32.3205 14.0439V24.508H46.6852C47.4476 24.508 48.2763 24.2271 49.1713 23.6626C50.0664 23.0981 50.5388 21.6772 50.5912 19.3944C50.4586 17.219 49.9255 15.7815 48.9918 15.0876C48.0581 14.3936 47.2763 14.0439 46.6437 14.0439H32.3205Z" fill="#FFDD00"/>
<path d="M71.2709 16.7976V0H118.801L137.743 56.4511H116.337L112.76 46.2623H95.8952L92.3179 56.4511H72.0554L85.119 16.7976H71.2709ZM104.779 12.3201L96.6549 34.6968H112.274L104.779 12.3201Z" fill="#FFDD00"/>
<path d="M143.647 56.4511V16.7976H131.768V0H177.382C181.948 0 185.973 0.600309 189.459 1.79817C192.942 2.99604 195.887 4.61247 198.288 6.64471C200.688 8.67694 202.688 11.4279 204.288 14.8921C205.884 18.359 206.683 22.8668 206.683 28.4183C206.393 33.554 205.52 37.9186 204.07 41.5149C202.616 45.1113 200.691 47.9531 198.288 50.0377C195.884 52.1222 192.948 53.7387 189.478 54.8842C186.006 56.0325 181.658 56.553 176.431 56.4483H143.647V56.4511ZM162.708 14.0439V42.4072H173.484C175.915 42.4072 177.873 41.8922 179.362 40.8651C180.851 39.8352 182.067 38.5217 183.006 36.919C183.948 35.3163 184.547 32.4332 184.81 28.2668C184.732 24.464 184.202 21.6579 183.221 19.8487C182.241 18.0396 180.981 16.6186 179.44 15.5915C177.898 14.5616 175.887 14.0494 173.404 14.0494H162.708V14.0439Z" fill="#FFDD00"/>
<path d="M209.393 16.7976V0H256.923L275.865 56.4511H254.52L250.942 46.2623H234.078L230.5 56.4511H210.177L223.241 16.7976H209.393ZM242.962 12.3201L234.837 34.6968H250.456L242.962 12.3201Z" fill="#FFDD00"/>
<path d="M319.07 32.5268L313.108 56.4511H294.683L281.658 16.7976H269.89V0H295.851L303.617 24.3951L310.363 0H327.305L335.186 24.3951L340.443 0H358.678L344.678 56.4511H326.247L319.07 32.5268Z" fill="#FFDD00"/>
<path d="M353.039 16.7976V0H400.57L419.512 56.4511H398.116L394.539 46.2623H377.674L374.097 56.4511H353.821L366.884 16.7976H353.039ZM386.561 12.3201L378.437 34.6968H394.056L386.561 12.3201Z" fill="#FFDD00"/>
<path d="M425.415 56.4511V0H443.843L460.774 21.1265V0H495.028V16.7976H479.282V56.4511H460.857L443.923 35.3411V56.4511H425.415Z" fill="#FFDD00"/>
<path d="M203.315 109.873H222.652V100.235H203.315V93.6262H233.426V76.8286H182.044H173.205H127.625V93.6262H145.58V133.28H164.089V93.6262H173.205H182.044H184.807V133.28H238.122V116.482H203.315V109.873Z" fill="#FFDD00"/>
<path d="M373.758 76.8286H359.117H357.735H340.885V96.3799H325.967V76.8286H286.188V77.0186C283.208 76.2696 279.357 75.7712 274.633 75.5261C268.771 75.84 264.337 76.6936 261.329 78.087C258.321 79.4832 255.343 81.3336 252.401 83.6413C249.459 85.9489 247.155 88.843 245.495 92.3265C243.832 95.8072 243.003 99.8193 243.003 104.357C243.003 108.948 243.835 112.985 245.495 116.465C247.155 119.946 249.459 122.843 252.401 125.151C255.346 127.458 258.321 129.312 261.329 130.705C264.337 132.101 268.771 132.955 274.633 133.269C280.702 132.955 285.332 132.225 288.525 131.077C291.716 129.928 294.934 127.844 298.18 124.818L287.034 112.456C285.15 114.02 283.476 115.144 282.012 115.821C280.545 116.499 278.139 116.942 274.791 117.151C271.545 116.735 269.125 116.069 267.531 115.155C265.934 114.243 264.561 113.004 263.409 111.437C262.257 109.873 261.578 107.524 261.368 104.396C261.578 101.265 262.257 98.9188 263.409 97.3547C264.561 95.7906 265.934 94.5515 267.531 93.6372C269.128 92.7257 271.547 92.0593 274.791 91.6408C278.139 91.8501 280.545 92.2934 282.012 92.9708C283.476 93.6482 285.152 94.7718 287.034 96.3359L289.481 93.6207H307.459V133.274H325.967V112.897H340.608V133.274H359.117V93.6262H373.758V76.8286Z" fill="#FFDD00"/>
</svg>
