<svg width="538" height="34" viewBox="0 0 538 34" fill="none" xmlns="http://www.w3.org/2000/svg">
<path d="M8.49767 33.5907V10.5157H0V0.740898H34.7179C37.9648 0.982865 40.6544 1.6639 42.7808 2.784C44.9092 3.9041 46.421 5.46326 47.3162 7.45989C48.1383 9.88117 48.4723 11.6983 48.3241 12.9082C48.1739 14.1196 47.8755 15.2541 47.4289 16.3133C46.9803 17.3725 45.7491 18.5984 43.7334 19.9909C41.7176 21.3834 39.03 22.284 35.6705 22.6926H23.1216V33.5891H8.49767V33.5907ZM23.1216 8.9133V15.0025H33.3978C33.9433 15.0025 34.5361 14.8391 35.1764 14.5106C35.8167 14.1821 36.1546 13.3552 36.1922 12.0268C36.0973 10.7609 35.7159 9.92443 35.048 9.52062C34.38 9.11681 33.8207 8.9133 33.3682 8.9133H23.1216Z" fill="#FFDD00"/>
<path d="M50.9861 10.5157V0.740898H84.9886L98.5394 33.5907H83.2258L80.6667 27.6617H68.6019L66.0428 33.5907H51.5473L60.8928 10.5157H50.9861ZM74.9574 7.91017L69.1454 20.9315H80.3188L74.9574 7.91017Z" fill="#FFDD00"/>
<path d="M102.763 33.5907V10.5157H94.2649V0.740898H126.896C130.163 0.740898 133.042 1.09023 135.536 1.78729C138.028 2.48434 140.135 3.42497 141.852 4.60757C143.569 5.79016 145 7.39099 146.144 9.40685C147.286 11.4243 147.858 14.0475 147.858 17.278C147.65 20.2665 147.026 22.8064 145.988 24.8992C144.949 26.9919 143.571 28.6456 141.852 29.8587C140.133 31.0717 138.032 32.0124 135.55 32.679C133.066 33.3472 129.955 33.65 126.216 33.5891H102.763V33.5907ZM116.398 8.9133V25.4183H124.108C125.847 25.4183 127.248 25.1187 128.313 24.521C129.378 23.9217 130.248 23.1573 130.92 22.2247C131.593 21.2921 132.022 19.6143 132.21 17.1899C132.155 14.9769 131.775 13.344 131.074 12.2912C130.372 11.2384 129.471 10.4116 128.368 9.81386C127.266 9.21456 125.827 8.9165 124.05 8.9165H116.398V8.9133Z" fill="#FFDD00"/>
<path d="M149.796 10.5157V0.740898H183.799L197.35 33.5907H182.079L179.52 27.6617H167.456L164.896 33.5907H150.357L159.703 10.5157H149.796ZM173.811 7.91017L167.999 20.9315H179.172L173.811 7.91017Z" fill="#FFDD00"/>
<path d="M228.257 19.6688L223.993 33.5907H210.811L201.494 10.5157H193.075V0.740898H211.647L217.202 14.9368L222.028 0.740898H234.148L239.787 14.9368L243.547 0.740898H256.592L246.577 33.5907H233.392L228.257 19.6688Z" fill="#FFDD00"/>
<path d="M252.559 10.5157V0.740898H286.561L300.112 33.5907H284.806L282.247 27.6617H270.183L267.623 33.5907H253.118L262.463 10.5157H252.559ZM276.54 7.91017L270.728 20.9315H281.901L276.54 7.91017Z" fill="#FFDD00"/>
<path d="M304.335 33.5907V0.740898H317.519L329.631 13.0348V0.740898H354.136V10.5157H342.871V33.5907H329.69L317.576 21.3065V33.5907H304.335Z" fill="#FFDD00"/>
<path d="M415.754 19.9871H429.587V14.3786H415.754V10.5328H437.295V0.757935H400.537H394.213H361.606V10.5328H374.451V33.6078H387.692V10.5328H394.213H400.537H402.513V33.6078H440.654V23.8329H415.754V19.9871Z" fill="#FFDD00"/>
<path d="M537.686 0.757939H527.212H526.224H514.169V12.1352H503.497V0.757939H475.04V0.868507C472.908 0.432646 470.153 0.142609 466.774 -7.62939e-06C462.58 0.18267 459.408 0.679421 457.256 1.49025C455.104 2.30268 452.974 3.37952 450.869 4.72235C448.764 6.06519 447.116 7.74935 445.929 9.77643C444.739 11.8019 444.146 14.1366 444.146 16.7774C444.146 19.4487 444.741 21.7979 445.929 23.8233C447.116 25.8488 448.764 27.5346 450.869 28.8774C452.976 30.2202 455.104 31.2987 457.256 32.1095C459.408 32.9219 462.58 33.4187 466.774 33.6014C471.115 33.4187 474.427 32.994 476.712 32.3258C478.994 31.6576 481.297 30.4446 483.619 28.6835L475.645 21.4902C474.297 22.4004 473.099 23.0542 472.052 23.4484C471.003 23.8426 469.281 24.1006 466.886 24.2223C464.564 23.9804 462.833 23.5926 461.693 23.0606C460.551 22.5302 459.568 21.8091 458.744 20.8973C457.92 19.9871 457.434 18.6202 457.284 16.7999C457.434 14.9779 457.92 13.6126 458.744 12.7025C459.568 11.7923 460.551 11.0712 461.693 10.5392C462.835 10.0088 464.566 9.62098 466.886 9.37741C469.281 9.4992 471.003 9.75719 472.052 10.1514C473.099 10.5456 474.299 11.1994 475.645 12.1096L477.396 10.5296H490.257V33.6046H503.497V21.7466H513.971V33.6046H527.212V10.5328H537.686V0.757939Z" fill="#FFDD00"/>
</svg>
