<svg width="141" height="39" viewBox="0 0 141 39" fill="none" xmlns="http://www.w3.org/2000/svg">
<path d="M3.38269 16.0758V4.78354H0V0H13.8203C15.1128 0.118412 16.1834 0.451692 17.0299 0.999839C17.8771 1.54799 18.4789 2.311 18.8353 3.2881C19.1625 4.473 19.2955 5.36227 19.2365 5.95433C19.1767 6.54718 19.0579 7.10238 18.8801 7.62073C18.7016 8.13908 18.2115 8.73899 17.409 9.42044C16.6066 10.1019 15.5368 10.5426 14.1994 10.7426H9.20406V16.0751H3.38269V16.0758ZM9.20406 3.99936V6.97927H13.2948C13.5119 6.97927 13.7479 6.89928 14.0028 6.73852C14.2576 6.57776 14.3922 6.17312 14.4071 5.52303C14.3693 4.90352 14.2175 4.49418 13.9516 4.29656C13.6857 4.09895 13.4631 3.99936 13.283 3.99936H9.20406Z" fill="#FFDD00"/>
<path d="M20.2962 4.78354V0H33.8316L39.2258 16.0758H33.1299L32.1112 13.1743H27.3085L26.2898 16.0758H20.5196L24.2397 4.78354H20.2962ZM29.8385 3.50845L27.5249 9.88076H31.9727L29.8385 3.50845Z" fill="#FFDD00"/>
<path d="M40.907 16.0758V4.78354H37.5243V0H50.5138C51.8142 0 52.9604 0.170953 53.9531 0.512074C54.9451 0.853196 55.7837 1.31351 56.4673 1.89224C57.1509 2.47098 57.7205 3.25438 58.176 4.24089C58.6307 5.22818 58.858 6.51189 58.858 8.09282C58.7754 9.55533 58.5268 10.7983 58.1138 11.8224C57.7 12.8466 57.1517 13.6558 56.4673 14.2495C55.7829 14.8431 54.9467 15.3034 53.9586 15.6296C52.9698 15.9566 51.7316 16.1049 50.2432 16.0751H40.907V16.0758ZM46.335 3.99936V12.0765H49.4038C50.0961 12.0765 50.6538 11.9298 51.0778 11.6373C51.5019 11.3441 51.848 10.97 52.1155 10.5136C52.3837 10.0572 52.5544 9.23616 52.6292 8.04968C52.6071 6.96672 52.4561 6.16763 52.1768 5.65242C51.8976 5.13721 51.5388 4.73257 51.0999 4.44007C50.6609 4.14678 50.0882 4.00092 49.381 4.00092H46.335V3.99936Z" fill="#FFDD00"/>
<path d="M59.6297 4.78354V0H73.1652L78.5594 16.0758H72.4808L71.4621 13.1743H66.6594L65.6407 16.0758H59.8531L63.5733 4.78354H59.6297ZM69.1894 3.50845L66.8758 9.88076H71.3236L69.1894 3.50845Z" fill="#FFDD00"/>
<path d="M90.863 9.26282L89.1653 16.0758H83.9182L80.2091 4.78354H76.8578V0H84.251L86.4623 6.94712L88.3834 0H93.208L95.4524 6.94712L96.9494 0H102.142L98.1554 16.0758H92.9067L90.863 9.26282Z" fill="#FFDD00"/>
<path d="M100.537 4.78354V0H114.072L119.466 16.0758H113.374L112.355 13.1743H107.552L106.533 16.0758H100.759L104.479 4.78354H100.537ZM110.083 3.50845L107.769 9.88076H112.217L110.083 3.50845Z" fill="#FFDD00"/>
<path d="M121.148 16.0758V0H126.395L131.217 6.01629V0H140.972V4.78354H136.488V16.0758H131.241L126.418 10.0643V16.0758H121.148Z" fill="#FFDD00"/>
<path d="M21.5548 31.7811H27.0615V29.0364H21.5548V27.1544H30.1295V22.3708H15.4974H12.9801H7.62939e-06V27.1544H5.11338V38.4467H10.3841V27.1544H12.9801H15.4974H16.2841V38.4467H31.4669V33.6631H21.5548V31.7811Z" fill="#FFDD00"/>
<path d="M70.0925 22.3709H65.9231H65.5298H60.7311V27.9387H56.4831V22.3709H45.155V22.425C44.3062 22.2117 43.2095 22.0698 41.8643 22C40.195 22.0894 38.9324 22.3325 38.0757 22.7293C37.219 23.1269 36.371 23.6538 35.5332 24.311C34.6954 24.9681 34.0393 25.7923 33.5665 26.7843C33.0929 27.7755 32.8569 28.9181 32.8569 30.2104C32.8569 31.5177 33.0937 32.6673 33.5665 33.6585C34.0393 34.6497 34.6954 35.4747 35.5332 36.1318C36.3718 36.789 37.219 37.3167 38.0757 37.7135C38.9324 38.1111 40.195 38.3542 41.8643 38.4436C43.5926 38.3542 44.9111 38.1464 45.8205 37.8194C46.7291 37.4924 47.6456 36.8988 48.5699 36.037L45.3957 32.5167C44.8592 32.9622 44.3825 33.2821 43.9655 33.475C43.5478 33.6679 42.8626 33.7942 41.9092 33.8538C40.9848 33.7354 40.2957 33.5456 39.8418 33.2852C39.3871 33.0257 38.9961 32.6728 38.6681 32.2266C38.34 31.7812 38.1465 31.1123 38.0867 30.2214C38.1465 29.3298 38.34 28.6617 38.6681 28.2163C38.9961 27.7708 39.3871 27.4179 39.8418 27.1576C40.2965 26.898 40.9856 26.7083 41.9092 26.5891C42.8626 26.6487 43.5478 26.7749 43.9655 26.9678C44.3825 27.1607 44.86 27.4807 45.3957 27.9261L46.0927 27.1529H51.2123V38.4452H56.4831V32.6422H60.6524V38.4452H65.9231V27.1545H70.0925V22.3709Z" fill="#FFDD00"/>
</svg>
