<svg width="96" height="96" viewBox="0 0 96 96" fill="none" xmlns="http://www.w3.org/2000/svg">
<rect x="0.468262" y="0.484375" width="95.0899" height="95.0899" rx="30" fill="white" fill-opacity="0.2"/>
<path d="M20.6331 45.8048C22.2707 47.2233 23.9295 48.6157 25.5671 50.0342C25.9815 50.3923 26.3026 50.8137 26.6149 51.2476C28.0522 53.2392 29.5616 55.1761 31.0014 57.1665C31.5016 57.8577 31.5103 57.9261 31.0574 58.6484C29.4671 61.1845 30.7898 64.4243 33.703 65.0671C34.2231 65.1814 34.3214 65.4674 34.3003 65.8988C34.2368 67.2054 34.7445 68.2509 35.699 69.1298C36.3349 69.7166 37.0715 70.0349 37.904 70.158C38.5822 70.2587 38.683 70.3382 38.7577 70.9785C39.0103 73.1429 40.8632 74.7752 43.0571 74.7106C43.5498 74.6957 43.7502 74.8362 43.8746 75.3048C44.7656 78.6453 48.5485 79.6909 51.0423 77.2977C51.7242 76.6425 51.7528 76.64 52.4833 77.1821C55.1675 79.1712 58.6866 77.7825 59.2789 74.4918C59.3735 73.9634 59.5689 73.68 60.1649 73.5929C62.0838 73.3145 63.414 71.9805 63.7326 70.0747C63.8259 69.5215 64.0213 69.2243 64.6472 69.1323C66.5648 68.8526 67.869 67.5274 68.195 65.5991C68.2908 65.0335 68.5111 64.76 69.127 64.6742C71.953 64.2776 73.5683 61.2057 72.3027 58.6708C72.1011 58.2667 72.0837 57.9112 72.289 57.4997C73.5434 54.9896 74.7168 52.4423 75.9264 49.9111C76.1429 49.4586 76.5448 49.1938 76.9007 48.8905C78.5309 47.4956 80.1436 46.0808 81.785 44.6996C82.6859 43.9413 82.7544 43.4316 82.0413 42.5004C78.6802 38.1082 75.3005 33.7308 71.9219 29.3523C71.3333 28.5902 70.8804 28.4783 70.0616 28.9768C68.017 30.2225 66.0148 31.5366 63.9939 32.8196C63.5559 33.0981 63.1141 33.2298 62.5977 33.2286C60.2023 33.2174 57.8068 33.2385 55.4114 33.2149C54.6162 33.2075 53.8546 33.3106 53.0968 33.5431C51.4194 34.0578 49.7158 34.4855 48.0421 35.0163C47.4323 35.2103 46.8475 35.2028 46.2215 35.025C44.3549 34.4942 42.4797 33.9969 40.6068 33.4884C40.0406 33.3343 39.5329 33.0819 39.0402 32.7686C37.1437 31.559 35.2485 30.3468 33.3483 29.1409C33.2264 29.0639 33.0994 28.993 32.9725 28.9246C32.2259 28.5193 31.7903 28.5952 31.2478 29.269C29.5791 31.3427 27.8991 33.4076 26.2341 35.485C24.0017 38.2698 21.7133 41.0098 19.5256 43.8306C19.4622 43.9127 19.3962 43.9935 19.273 43.9587C19.273 44.2061 19.273 44.4535 19.273 44.7009C19.8566 44.9035 20.1951 45.4244 20.6331 45.8048ZM34.6238 62.8454C33.8448 62.8467 33.2301 62.5023 32.8854 61.7775C32.5457 61.0627 32.6004 60.3516 33.1218 59.7586C33.6768 59.1258 34.2804 58.5278 34.91 57.9684C35.5036 57.4437 36.2241 57.389 36.9322 57.7185C37.6265 58.0417 37.9675 58.6273 37.9874 59.2091C37.9961 60.5803 35.8122 62.8442 34.6238 62.8454ZM39.8117 67.3434C39.0265 68.0918 37.8879 68.0594 37.1462 67.326C36.4195 66.6086 36.3971 65.4276 37.1375 64.6605C38.1106 63.6535 39.1036 62.6664 40.1091 61.693C40.7151 61.1062 41.4518 60.9794 42.2208 61.32C42.9463 61.6408 43.2873 62.2512 43.3196 62.9138C43.3196 63.5802 43.1218 64.0451 42.746 64.4256C41.7741 65.4052 40.8097 66.3923 39.8117 67.3434ZM44.2081 71.8624C43.6183 72.4256 42.894 72.5263 42.1474 72.1844C41.4008 71.8425 41.0436 71.2321 41.0436 70.4141C41.0511 69.9168 41.2266 69.4879 41.575 69.1373C42.5481 68.1589 43.5137 67.1743 44.5043 66.2133C45.2994 65.4413 46.4206 65.4251 47.171 66.1362C47.9413 66.866 47.9948 68.0358 47.2245 68.8514C46.2489 69.8845 45.2372 70.8828 44.2081 71.8624ZM48.0881 76.2658C47.293 76.2957 46.6757 75.9575 46.3161 75.2588C45.9465 74.5415 45.9876 73.7968 46.5264 73.1814C47.0802 72.5474 47.6812 71.9457 48.3158 71.3925C48.9057 70.8778 49.615 70.797 50.3342 71.1463C51.0286 71.4832 51.3671 72.0563 51.3833 72.5698C51.3895 74.0057 49.2728 76.2223 48.0881 76.2658ZM65.8394 34.3922C67.3276 33.471 68.7985 32.52 70.2769 31.5801C70.3465 31.5366 70.4187 31.4968 70.4946 31.4508C70.7174 31.4645 70.7709 31.6733 70.8767 31.8101C73.0207 34.5837 75.1586 37.361 77.2977 40.1371C78.0406 41.1006 78.7723 42.0727 79.5314 43.0238C79.7317 43.2749 79.723 43.398 79.4741 43.6069C78.2098 44.6686 76.9567 45.7427 75.7186 46.8342C75.4411 47.0791 75.3216 47.0393 75.1076 46.7658C72.0178 42.8199 68.918 38.8839 65.817 34.9479C65.6564 34.7465 65.4872 34.6098 65.8394 34.3922ZM45.9129 38.0211C48.7228 37.2155 51.5301 36.4062 54.3399 35.6044C54.5341 35.5484 54.7456 35.5347 54.9484 35.5335C57.5094 35.5285 60.0704 35.5372 62.6301 35.5223C62.9735 35.5198 63.1888 35.6242 63.4003 35.8953C66.7353 40.147 70.0765 44.3938 73.4326 48.6294C73.689 48.9526 73.7139 49.1913 73.5359 49.5556C72.4794 51.7175 71.4491 53.8906 70.3727 56.1359C70.1636 55.937 69.9994 55.7865 69.8413 55.6286C65.4897 51.2812 61.1343 46.9386 56.7926 42.58C56.3745 42.1598 55.9278 41.9236 55.3367 41.8863C53.2561 41.7582 51.1755 41.6177 49.0961 41.4586C48.3893 41.4039 47.9288 41.6811 47.5891 42.2928C46.4978 44.2533 45.3866 46.2014 44.2741 48.1508C43.8597 48.8768 43.2362 49.2547 42.3826 49.1777C41.6111 49.108 41.0872 48.6916 40.7972 47.9817C40.582 47.4546 40.5994 46.9188 40.8731 46.4289C42.3838 43.7362 43.9132 41.0533 45.4301 38.3643C45.5433 38.1666 45.7076 38.0808 45.9129 38.0211ZM39.5752 36.027C39.7681 35.7908 39.9386 35.6951 40.246 35.7834C41.3124 36.0929 42.3863 36.3789 43.5237 36.6922C41.9284 39.5105 40.3866 42.2543 38.8236 44.9868C38.138 46.1853 37.9563 47.4359 38.4205 48.7289C39.0227 50.4047 40.2348 51.4179 42.0105 51.6342C43.892 51.863 45.3766 51.1282 46.3497 49.5084C47.3564 47.8325 48.2997 46.1181 49.2454 44.4075C49.4346 44.0656 49.6299 43.9699 50.0194 44.0047C51.5202 44.139 53.0246 44.2372 54.5291 44.3242C54.88 44.3441 55.1388 44.4448 55.3927 44.6984C60.1463 49.4611 64.9098 54.2151 69.6696 58.9716C70.5817 59.8829 70.6551 61.0167 69.8687 61.8248C69.071 62.6453 67.8864 62.5956 66.968 61.6719C64.4058 59.0959 61.8536 56.5113 59.3001 53.9267C58.989 53.6122 58.6729 53.3362 58.1888 53.3424C57.6836 53.3486 57.3165 53.5761 57.0851 54.0088C56.8623 54.4227 56.8835 54.8492 57.1485 55.2383C57.2742 55.4235 57.441 55.5839 57.6002 55.7455C60.155 58.3276 62.7172 60.9048 65.2669 63.4919C66.4068 64.6481 66.026 66.3575 64.5415 66.7876C63.7376 67.0201 63.0917 66.723 62.533 66.1561C60.8655 64.4666 59.1943 62.7808 57.5256 61.0925C57.3227 60.8862 57.1224 60.6748 56.8461 60.5691C56.3335 60.3715 55.7361 60.5505 55.4051 60.9893C55.0667 61.4381 55.0667 62.0809 55.4661 62.5284C55.9464 63.0667 56.4703 63.5665 56.9781 64.0812C58.2847 65.4027 59.6012 66.7118 60.8954 68.0458C61.5263 68.6947 61.6445 69.5215 61.2812 70.2674C60.9389 70.9673 60.201 71.38 59.4021 71.3117C58.8845 71.2682 58.4688 71.022 58.1092 70.6565C57.2269 69.7577 56.3422 68.8613 55.4524 67.9712C54.7941 67.3123 54.0276 67.2526 53.4962 67.8046C52.9674 68.3528 53.0308 69.054 53.6817 69.7154C54.5789 70.6279 55.4935 71.523 56.382 72.4455C57.2033 73.2983 57.2269 74.447 56.4703 75.2141C55.7125 75.9824 54.5863 75.9588 53.6929 75.178C53.4776 74.9903 53.4154 74.8523 53.5249 74.5589C54.5291 71.8525 53.2598 69.3748 50.4699 68.5928C50.1613 68.5058 50.16 68.3889 50.1949 68.1191C50.5246 65.5482 48.7974 63.4099 46.1854 63.1562C45.9167 63.1301 45.8109 63.0891 45.7823 62.7808C45.5371 60.1377 43.5946 58.498 40.9453 58.6969C40.5844 58.7242 40.4264 58.7031 40.3194 58.2903C39.5479 55.3402 36.0959 54.0821 33.6034 55.8474C33.199 56.1334 33.0658 56.0588 32.8095 55.707C31.4494 53.8409 30.0731 51.9861 28.6769 50.1461C28.418 49.8055 28.4106 49.6103 28.6893 49.2721C32.3304 44.8675 35.9553 40.4491 39.5752 36.027ZM22.4823 43.8083C25.7538 39.7741 29.0178 35.7349 32.2757 31.6883C32.4735 31.4421 32.6104 31.4148 32.8767 31.5876C34.3102 32.5175 35.7575 33.4263 37.1972 34.3462C37.3105 34.4183 37.4722 34.4519 37.4959 34.6446C37.4274 34.7316 37.3528 34.8298 37.2744 34.9256C33.8324 39.1139 30.3892 43.2998 26.9546 47.4944C26.7132 47.789 26.5714 47.8586 26.2478 47.5702C25.0321 46.4861 23.7914 45.4319 22.5433 44.3839C22.3006 44.18 22.2819 44.0557 22.4823 43.8083Z" fill="#FFDD00"/>
<path d="M19.9724 45.4381C20.9504 46.2934 21.9584 47.1164 22.9253 47.9842C23.9967 48.9477 25.2423 49.7371 26.1271 50.8858C27.8008 53.0577 29.3986 55.2868 31.0499 57.4761C31.3038 57.813 31.3212 58.0094 31.0599 58.3637C29.1784 60.9222 30.5522 64.576 33.642 65.22C34.0788 65.3107 34.1335 65.4599 34.1236 65.8515C34.0651 68.2261 35.7151 70.0946 38.0757 70.3383C38.3918 70.3706 38.53 70.4402 38.5747 70.7933C38.8983 73.3891 40.6728 74.907 43.2873 74.8337C43.561 74.8262 43.6344 74.8934 43.6842 75.147C44.0264 76.9061 45.0754 78.0871 46.779 78.5807C48.5112 79.0817 50.0468 78.6056 51.2825 77.2865C51.6409 76.9049 51.8549 76.8427 52.3004 77.2231C54.834 79.3826 58.8558 77.9877 59.3971 74.7516C59.5104 74.0716 59.6659 73.8155 60.4063 73.6949C62.3799 73.3742 63.6442 71.9084 63.9541 69.8547C63.984 69.6545 63.8533 69.3822 64.2752 69.3263C66.7751 68.9919 68.0618 67.725 68.4165 65.2548C68.4663 64.9067 68.6056 64.893 68.8782 64.8694C71.9904 64.5971 73.8196 61.3163 72.4122 58.5166C72.2579 58.2096 72.243 57.9883 72.3936 57.6775C73.6131 55.16 74.8164 52.635 76.0122 50.1076C76.1578 49.8005 76.3532 49.5581 76.6096 49.3393C78.4139 47.7977 80.2121 46.2499 82.0102 44.7009C82.89 43.9425 82.9485 43.398 82.2442 42.4818C78.8482 38.0697 75.4498 33.66 72.0501 29.2516C71.357 28.3528 70.853 28.267 69.8886 28.8786C67.9063 30.138 65.9202 31.3936 63.9479 32.6679C63.5347 32.9352 63.1278 33.0645 62.6263 33.0608C60.0865 33.0384 57.5467 33.0546 55.0069 33.0459C54.4868 33.0446 53.9915 33.1155 53.4888 33.2659C51.5164 33.8527 49.5329 34.4034 47.5568 34.9766C47.2693 35.0599 47.003 35.0673 46.7106 34.9853C45.2434 34.575 43.7838 34.1312 42.298 33.798C40.6218 33.4226 39.131 32.7102 37.7211 31.743C36.244 30.7298 34.7035 29.8098 33.1878 28.8513C32.2868 28.2819 31.7766 28.364 31.1096 29.1882C28.1916 32.796 25.2672 36.4 22.3628 40.0202C21.3188 41.3206 20.1901 42.5539 19.2718 43.9537C19.395 43.9885 19.4609 43.9077 19.5244 43.8257C21.712 41.0049 24.0017 38.2661 26.2329 35.4801C27.8979 33.4027 29.5778 31.3377 31.2465 29.264C31.7903 28.589 32.2259 28.5144 32.9713 28.9197C33.0982 28.988 33.2251 29.0589 33.3471 29.136C35.2472 30.3419 37.1412 31.554 39.0389 32.7637C39.5317 33.0769 40.0394 33.3293 40.6056 33.4835C42.4784 33.9919 44.3549 34.4905 46.2203 35.0201C46.845 35.1979 47.4298 35.2053 48.0408 35.0114C49.7133 34.4793 51.4169 34.0516 53.0955 33.5382C53.8546 33.3057 54.6149 33.2025 55.4101 33.21C57.8056 33.2323 60.201 33.2125 62.5965 33.2236C63.1116 33.2261 63.5547 33.0931 63.9927 32.8146C66.0136 31.5304 68.0158 30.2176 70.0603 28.9719C70.8791 28.4734 71.3321 28.5852 71.9207 29.3473C75.2992 33.7259 78.679 38.1032 82.0401 42.4955C82.7531 43.4266 82.6847 43.9363 81.7837 44.6947C80.1424 46.0759 78.5297 47.4907 76.8995 48.8855C76.5448 49.1889 76.1417 49.4537 75.9251 49.9062C74.7156 52.4374 73.5409 54.9859 72.2878 57.4947C72.0825 57.9062 72.0999 58.2618 72.3015 58.6658C73.567 61.2007 71.9518 64.2727 69.1258 64.6693C68.5111 64.755 68.2896 65.0285 68.1937 65.5942C67.8677 67.5236 66.5623 68.8489 64.646 69.1274C64.0201 69.2181 63.8247 69.5165 63.7314 70.0697C63.4115 71.9756 62.0825 73.3108 60.1637 73.588C59.5676 73.6738 59.3735 73.9585 59.2777 74.4868C58.6853 77.7788 55.1662 79.1675 52.4821 77.1771C51.7504 76.6351 51.723 76.6376 51.0411 77.2927C48.5473 79.6859 44.7643 78.6416 43.8734 75.2999C43.7489 74.8312 43.5486 74.6907 43.0558 74.7056C40.8632 74.7715 39.009 73.138 38.7564 70.9735C38.6818 70.3333 38.581 70.2537 37.9028 70.153C37.069 70.0299 36.3336 69.7104 35.6977 69.1249C34.7433 68.2447 34.2356 67.2004 34.299 65.8938C34.3202 65.4624 34.2219 65.1765 33.7017 65.0621C30.7886 64.4194 29.4671 61.1808 31.0561 58.6434C31.5091 57.9211 31.5016 57.8528 31.0001 57.1615C29.5604 55.1724 28.0509 53.2343 26.6137 51.2426C26.3013 50.81 25.979 50.3886 25.5659 50.0293C23.9283 48.612 22.2695 47.2184 20.6319 45.7999C20.1926 45.4195 19.8554 44.8986 19.2718 44.6922C19.5057 44.9446 19.7173 45.2156 19.9724 45.4381Z" fill="#FFDD00"/>
<path d="M66.7266 19.8555C66.1766 19.6131 65.6788 19.751 65.257 20.1725C62.4683 22.9585 59.6759 25.7396 56.8959 28.533C56.3185 29.1136 56.3198 29.8247 56.8436 30.3456C57.3538 30.8541 58.088 30.8466 58.6617 30.276C61.4566 27.4975 64.2403 24.7077 67.029 21.9217C67.2878 21.6631 67.4297 21.3523 67.4608 20.9818C67.421 20.4771 67.202 20.0656 66.7266 19.8555Z" fill="#FFDD00"/>
<path d="M42.843 26.2691C40.857 24.2862 38.8697 22.3046 36.8886 20.3179C36.5414 19.9698 36.1731 19.6789 35.6479 19.7523C35.1365 19.8231 34.7806 20.0991 34.6101 20.6014C34.4172 21.1695 34.6462 21.6009 35.0344 21.9888C37.7796 24.73 40.5222 27.4726 43.2711 30.2113C43.4142 30.3543 43.5797 30.4923 43.7601 30.5806C44.5603 30.9734 45.5147 30.3767 45.5309 29.4853C45.5247 29.0663 45.3231 28.7431 45.0356 28.4572C44.3014 27.7299 43.5735 26.9989 42.843 26.2691Z" fill="#FFDD00"/>
<path d="M52.2357 22.5731C52.2294 21.7551 51.6881 21.1782 50.9701 21.1956C50.2745 21.213 49.7593 21.7762 49.7568 22.5619C49.7494 24.8096 49.7506 27.0573 49.7556 29.3063C49.7581 30.1542 50.2521 30.7024 50.99 30.7049C51.7267 30.7074 52.2294 30.1566 52.2357 29.3162C52.2444 28.2023 52.2382 27.0884 52.2382 25.9758C52.2382 24.842 52.2444 23.7082 52.2357 22.5731Z" fill="#FFDD00"/>
<path d="M50.9664 18.6993C51.6334 18.7142 52.2033 18.1846 52.2332 17.522C52.2643 16.827 51.7205 16.2427 51.0249 16.2253C50.3305 16.2079 49.7593 16.7661 49.7581 17.4635C49.7568 18.1311 50.2982 18.6844 50.9664 18.6993Z" fill="#FFDD00"/>
</svg>
