<svg width="28" height="27" viewBox="0 0 28 27" fill="none" xmlns="http://www.w3.org/2000/svg">
<path d="M24.3198 0.433838C25.8433 0.433838 27.1323 1.7229 27.1323 3.24634V23.8713C27.1323 25.4534 25.8433 26.6838 24.3198 26.6838H3.69485C2.11282 26.6838 0.882347 25.4534 0.882347 23.8713V3.24634C0.882347 1.7229 2.11282 0.433838 3.69485 0.433838H24.3198ZM21.4488 9.75024C22.1519 9.2229 22.855 8.51978 23.3823 7.75806C22.6792 8.05103 21.9175 8.2854 21.1558 8.34399C21.9175 7.87524 22.562 7.17212 22.855 6.23462C22.0933 6.70337 21.273 6.99634 20.3941 7.17212C19.6909 6.4104 18.6948 5.94165 17.5816 5.94165C15.2378 5.94165 13.3042 8.10962 13.8316 10.6877C10.6675 10.512 7.79641 8.98853 5.92141 6.64478C5.56985 7.23071 5.39407 7.87524 5.39407 8.63696C5.39407 9.92603 6.0386 11.0979 7.09328 11.801C6.44875 11.801 5.86282 11.6252 5.39407 11.3323V11.3909C5.39407 13.2659 6.68313 14.7893 8.44094 15.1409C7.855 15.3167 7.32766 15.3167 6.68313 15.1995C7.21047 16.7229 8.61672 17.8362 10.3159 17.8948C8.96828 18.8909 7.32766 19.5354 5.51125 19.5354C5.21828 19.5354 4.92532 19.5354 4.63235 19.4768C6.33157 20.5901 8.32375 21.176 10.4917 21.176C17.5816 21.176 21.4488 15.3167 21.4488 10.2776C21.4488 10.1018 21.4488 9.92603 21.4488 9.75024Z" fill="#FFDD00"/>
</svg>
